<svg id="svg" version="1.1" xmlns="http://www.w3.org/2000/svg" xmlns:xlink="http://www.w3.org/1999/xlink" width="400" height="396.875" viewBox="0, 0, 400,396.875"><g id="svgg"><path id="path0" d="M198.120 11.122 C 197.737 11.735,197.194 11.917,195.737 11.917 C 194.280 11.917,193.737 12.098,193.354 12.711 C 193.055 13.190,192.427 13.505,191.775 13.505 C 191.100 13.505,190.534 13.804,190.268 14.300 C 190.034 14.737,189.493 15.094,189.066 15.094 C 188.638 15.094,188.065 15.452,187.793 15.889 C 187.520 16.326,186.965 16.683,186.560 16.683 C 186.156 16.683,185.731 17.041,185.617 17.478 C 185.502 17.915,185.193 18.272,184.930 18.272 C 184.315 18.272,182.324 21.299,182.324 22.234 C 182.324 22.625,181.966 23.040,181.529 23.154 C 180.959 23.303,180.735 23.696,180.735 24.544 C 180.735 25.393,180.510 25.785,179.940 25.934 C 179.332 26.093,179.146 26.476,179.146 27.570 C 179.146 28.467,178.851 29.292,178.352 29.791 C 177.690 30.453,177.557 31.116,177.557 33.764 L 177.557 36.941 165.343 36.947 C 152.710 36.952,151.341 37.054,151.341 37.981 C 151.341 38.302,150.928 38.530,150.348 38.530 C 149.619 38.530,149.355 38.742,149.355 39.325 C 149.355 39.849,149.090 40.119,148.576 40.119 C 147.620 40.119,146.177 41.598,146.177 42.577 C 146.177 43.032,145.884 43.297,145.382 43.297 C 144.921 43.297,144.588 43.562,144.588 43.929 C 144.588 44.277,144.230 45.016,143.793 45.572 C 143.128 46.418,142.999 47.183,142.999 50.284 L 142.999 53.986 127.872 54.103 C 114.578 54.206,112.689 54.297,112.281 54.854 C 112.016 55.216,110.974 55.581,109.844 55.708 C 108.759 55.830,107.802 56.138,107.717 56.392 C 107.632 56.646,107.135 57.016,106.612 57.215 C 106.089 57.414,105.660 57.850,105.660 58.183 C 105.660 58.557,105.297 58.788,104.707 58.788 C 103.489 58.788,100.894 61.342,100.894 62.540 C 100.894 63.031,100.536 63.756,100.099 64.151 C 99.662 64.546,99.305 65.289,99.305 65.801 C 99.305 66.333,99.067 66.733,98.752 66.733 C 97.726 66.733,97.716 67.788,97.716 177.230 C 97.716 284.789,97.728 286.473,98.482 286.670 C 99.007 286.807,99.331 287.359,99.510 288.422 C 99.655 289.275,99.923 289.880,100.107 289.767 C 100.291 289.653,100.678 289.876,100.966 290.263 C 102.098 291.785,107.731 294.967,110.030 295.384 C 110.794 295.522,111.774 295.819,112.206 296.043 C 113.853 296.898,292.411 296.701,296.127 295.841 C 299.801 294.990,302.409 293.710,305.400 291.290 C 306.567 290.345,307.686 289.673,307.887 289.797 C 308.223 290.005,308.915 287.769,308.723 287.090 C 308.677 286.927,308.855 286.837,309.118 286.892 C 309.381 286.946,309.605 286.783,309.615 286.528 C 309.624 286.273,309.765 285.932,309.926 285.771 C 310.276 285.421,310.328 68.923,309.979 67.627 C 309.847 67.135,309.491 66.733,309.189 66.733 C 308.873 66.733,308.640 66.325,308.640 65.772 C 308.640 64.401,308.244 63.555,307.604 63.555 C 307.300 63.555,307.051 63.295,307.051 62.977 C 307.051 62.229,305.199 60.377,304.451 60.377 C 304.133 60.377,303.873 60.020,303.873 59.583 C 303.873 59.070,303.608 58.788,303.125 58.788 C 302.711 58.788,302.284 58.434,302.169 57.994 C 302.010 57.386,301.627 57.200,300.534 57.200 C 299.371 57.200,299.106 57.052,299.106 56.405 C 299.106 55.739,298.841 55.611,297.462 55.611 C 296.354 55.611,295.652 55.384,295.310 54.916 C 294.845 54.280,293.589 54.210,280.668 54.102 L 266.534 53.984 266.534 51.471 C 266.534 48.259,266.174 46.475,265.526 46.475 C 265.240 46.475,264.897 45.777,264.747 44.886 C 264.543 43.680,264.295 43.297,263.719 43.297 C 263.301 43.297,262.959 43.110,262.959 42.881 C 262.959 42.017,259.032 38.530,258.059 38.530 C 257.428 38.530,257.022 38.255,256.886 37.736 C 256.683 36.960,256.344 36.941,242.738 36.941 L 228.798 36.941 228.798 31.980 C 228.798 27.448,228.730 26.975,228.004 26.522 C 227.438 26.168,227.210 25.595,227.210 24.532 C 227.210 23.459,227.039 23.039,226.604 23.039 C 226.271 23.039,225.828 22.592,225.621 22.046 C 225.413 21.500,224.971 21.053,224.637 21.053 C 224.304 21.053,224.032 20.793,224.032 20.477 C 224.032 20.160,223.805 19.758,223.527 19.583 C 223.249 19.408,222.805 18.770,222.539 18.165 C 222.273 17.560,221.602 16.892,221.047 16.681 C 220.493 16.470,219.935 16.027,219.808 15.696 C 219.657 15.301,219.046 15.094,218.031 15.094 C 216.749 15.094,216.485 14.958,216.485 14.300 C 216.485 13.775,216.220 13.505,215.704 13.505 C 215.275 13.505,214.732 13.148,214.499 12.711 C 214.165 12.089,213.667 11.917,212.197 11.917 C 210.750 11.917,210.206 11.734,209.824 11.122 C 209.368 10.392,208.898 10.328,203.972 10.328 C 199.047 10.328,198.577 10.392,198.120 11.122 M208.229 15.855 C 209.696 16.057,211.300 16.505,211.793 16.850 C 212.286 17.195,212.953 17.478,213.275 17.478 C 214.373 17.478,218.471 20.610,218.471 21.450 C 218.471 22.091,217.817 21.911,216.614 20.941 C 212.672 17.759,200.665 15.681,198.164 17.748 C 197.863 17.997,196.961 18.324,196.159 18.473 C 195.358 18.623,193.777 19.355,192.646 20.100 C 191.516 20.844,190.160 21.561,189.635 21.693 C 189.109 21.825,188.679 22.182,188.679 22.486 C 188.679 22.790,188.406 23.039,188.072 23.039 C 187.156 23.039,188.845 20.918,190.836 19.569 C 191.725 18.966,192.542 18.383,192.651 18.273 C 194.019 16.898,201.997 14.930,204.568 15.333 C 205.114 15.418,206.762 15.654,208.229 15.855 M220.060 22.642 C 220.060 22.860,219.791 23.039,219.464 23.039 C 219.136 23.039,218.868 22.860,218.868 22.642 C 218.868 22.423,219.136 22.244,219.464 22.244 C 219.791 22.244,220.060 22.423,220.060 22.642 M207.482 32.743 C 207.602 33.057,208.522 33.434,209.542 33.587 C 210.650 33.753,211.479 34.111,211.622 34.484 C 211.753 34.826,212.543 35.830,213.378 36.716 C 214.341 37.738,214.896 38.708,214.896 39.368 C 214.896 39.941,215.276 40.893,215.742 41.485 C 216.720 42.729,217.401 49.652,216.545 49.652 C 216.299 49.652,215.855 50.233,215.558 50.943 C 213.296 56.346,203.965 59.140,198.049 56.187 C 194.404 54.367,194.240 54.262,194.240 53.743 C 194.240 53.475,193.883 53.064,193.446 52.830 C 193.009 52.596,192.651 52.215,192.651 51.984 C 192.651 51.752,192.276 51.036,191.818 50.392 C 190.852 49.036,190.286 44.770,191.012 44.321 C 191.258 44.169,191.460 43.072,191.460 41.883 C 191.460 40.170,191.591 39.722,192.093 39.722 C 192.441 39.722,192.816 39.377,192.926 38.955 C 193.037 38.533,193.361 38.098,193.646 37.989 C 193.932 37.879,194.286 37.241,194.433 36.571 C 194.588 35.866,194.954 35.353,195.302 35.353 C 195.633 35.353,195.991 35.017,196.099 34.606 C 196.236 34.082,196.775 33.795,197.904 33.643 C 198.789 33.525,199.795 33.146,200.140 32.801 C 201.000 31.941,207.155 31.892,207.482 32.743 M178.799 39.373 C 180.819 39.806,180.849 39.832,179.911 40.352 C 178.059 41.378,158.657 41.017,159.005 39.963 C 159.335 38.961,174.736 38.501,178.799 39.373 M249.110 39.616 C 250.058 40.565,248.907 40.716,239.789 40.843 C 228.305 41.003,225.669 40.691,228.103 39.457 C 229.399 38.801,248.440 38.944,249.110 39.616 M158.689 41.311 C 158.832 41.542,158.439 41.708,157.752 41.708 C 157.102 41.708,156.287 41.817,155.941 41.949 C 155.596 42.082,155.313 42.005,155.313 41.780 C 155.313 41.037,158.266 40.627,158.689 41.311 M252.217 41.168 C 252.917 41.308,253.299 41.541,253.066 41.685 C 252.459 42.060,249.815 41.691,250.076 41.268 C 250.337 40.846,250.553 40.836,252.217 41.168 M143.396 62.363 C 144.598 64.610,143.972 64.747,132.483 64.747 C 121.012 64.747,118.410 65.074,114.399 67.019 C 111.884 68.239,106.618 73.297,105.991 75.094 C 105.551 76.358,104.866 76.318,104.866 75.029 C 104.866 71.367,110.111 65.629,115.732 63.142 C 119.656 61.407,142.539 60.763,143.396 62.363 M290.283 62.480 C 294.021 63.572,298.224 66.630,300.224 69.712 C 302.554 73.304,303.376 75.602,302.703 76.650 C 302.345 77.208,301.490 75.798,301.490 74.651 C 301.490 74.447,301.315 74.280,301.103 74.280 C 300.890 74.280,300.443 73.752,300.109 73.107 C 296.976 67.048,290.338 64.747,275.993 64.747 C 265.009 64.747,263.675 64.426,265.639 62.255 C 266.558 61.240,286.666 61.423,290.283 62.480 M143.485 72.195 C 143.862 72.625,144.194 74.102,144.354 76.068 C 144.539 78.339,144.801 79.387,145.272 79.742 C 146.239 80.470,263.161 80.470,263.627 79.742 C 263.802 79.469,264.048 77.757,264.173 75.938 C 264.327 73.696,264.584 72.515,264.971 72.270 C 266.274 71.445,285.352 71.828,287.698 72.726 C 290.106 73.648,293.748 76.598,294.164 77.965 C 294.312 78.450,294.679 79.129,294.979 79.472 C 296.324 81.009,296.370 83.811,296.248 157.498 C 296.181 197.696,296.191 239.434,296.268 250.248 C 296.424 271.970,296.230 274.929,294.446 277.983 C 292.740 280.903,290.414 282.901,287.543 283.913 L 285.005 284.807 203.802 284.806 L 122.598 284.806 120.018 283.935 C 116.681 282.808,112.603 278.969,112.202 276.577 C 112.063 275.751,111.801 274.538,111.621 273.883 C 111.440 273.227,111.188 230.238,111.059 178.352 C 110.809 77.316,110.712 84.006,112.506 78.973 C 112.934 77.769,115.648 74.677,116.276 74.677 C 116.501 74.677,116.916 74.399,117.199 74.058 C 118.806 72.122,122.165 71.611,133.702 71.549 C 141.980 71.504,142.935 71.567,143.485 72.195 M182.553 98.978 C 177.616 101.844,167.735 114.323,165.059 121.073 C 163.561 124.850,162.009 125.263,160.650 122.247 C 160.330 121.535,159.899 120.685,159.694 120.357 C 159.489 120.030,158.965 118.913,158.531 117.875 C 157.348 115.051,156.119 115.258,150.745 119.187 C 149.652 119.985,148.426 120.756,148.019 120.900 C 146.976 121.268,147.585 121.903,151.502 124.538 C 154.344 126.449,160.593 132.050,161.524 133.520 C 161.713 133.818,162.258 134.392,162.736 134.796 L 163.605 135.530 166.311 131.370 C 170.600 124.776,177.355 117.349,182.291 113.803 C 185.310 111.634,185.360 111.512,184.642 108.040 C 184.316 106.462,184.292 104.845,184.559 102.550 C 185.017 98.618,184.564 97.811,182.553 98.978 M181.927 149.984 C 179.249 151.863,173.877 157.495,171.520 160.893 C 168.010 165.954,166.126 169.081,165.072 171.599 C 162.978 176.600,162.151 176.188,158.501 168.322 C 158.019 167.284,157.396 166.435,157.115 166.435 C 155.747 166.435,151.046 169.175,148.262 171.596 C 147.505 172.254,147.669 173.103,148.609 173.402 C 150.392 173.968,154.380 177.103,158.799 181.413 C 164.359 186.835,163.560 186.735,166.108 182.324 C 169.047 177.233,177.804 167.471,181.972 164.639 C 185.621 162.160,185.614 162.173,184.880 159.305 C 184.332 157.169,184.319 151.520,184.856 149.355 C 185.008 148.742,183.118 149.148,181.927 149.984 " stroke="none" fill="#b8721f" fill-rule="evenodd"></path><path id="path1" d="M296.105 259.782 C 296.105 266.445,296.159 269.171,296.226 265.839 C 296.292 262.507,296.292 257.056,296.226 253.724 C 296.159 250.392,296.105 253.118,296.105 259.782 M292.682 280.048 C 291.728 281.337,289.933 282.530,287.388 283.565 C 285.945 284.151,278.301 284.229,203.774 284.411 L 121.748 284.612 203.440 284.709 L 285.133 284.806 287.452 283.932 C 290.372 282.832,295.327 278.848,293.776 278.848 C 293.662 278.848,293.170 279.388,292.682 280.048 M308.746 287.157 C 308.917 287.798,308.203 289.993,307.887 289.797 C 307.686 289.673,306.567 290.345,305.400 291.290 C 302.409 293.710,299.801 294.990,296.127 295.841 C 292.411 296.701,113.853 296.898,112.206 296.043 C 111.774 295.819,110.794 295.522,110.030 295.384 C 107.731 294.967,102.098 291.785,100.966 290.263 C 100.678 289.876,100.276 289.663,100.072 289.788 C 99.869 289.914,99.702 289.636,99.702 289.171 C 99.702 288.226,96.852 288.224,89.374 289.163 C 84.870 289.729,79.016 290.312,73.684 290.726 C 71.281 290.913,67.349 291.468,64.945 291.960 C 62.542 292.451,59.384 292.934,57.928 293.032 C 55.979 293.163,55.098 293.412,54.589 293.974 C 54.210 294.393,53.561 294.737,53.149 294.737 C 52.011 294.737,48.566 298.173,48.034 299.838 C 47.779 300.637,47.413 301.461,47.221 301.668 C 45.290 303.755,49.022 314.598,51.672 314.598 C 52.059 314.598,52.665 314.887,53.018 315.239 C 53.779 316.000,55.970 316.561,58.231 316.574 C 59.126 316.580,60.466 316.897,61.210 317.279 C 62.116 317.745,64.002 318.063,66.931 318.245 C 69.335 318.394,72.642 318.701,74.280 318.927 C 75.919 319.153,79.047 319.458,81.231 319.604 C 83.416 319.750,85.417 320.038,85.678 320.244 C 85.943 320.452,92.359 320.707,100.177 320.821 C 107.890 320.932,115.541 321.209,117.180 321.435 C 126.397 322.708,278.370 322.708,287.587 321.435 C 289.225 321.209,296.877 320.932,304.590 320.821 C 312.408 320.707,318.824 320.452,319.088 320.244 C 319.349 320.038,321.351 319.750,323.535 319.604 C 325.720 319.458,328.848 319.153,330.487 318.927 C 332.125 318.701,335.432 318.394,337.835 318.245 C 340.764 318.063,342.650 317.745,343.557 317.279 C 344.300 316.897,345.641 316.580,346.536 316.574 C 348.797 316.561,350.988 316.000,351.749 315.239 C 352.102 314.887,352.707 314.598,353.095 314.598 C 354.385 314.598,356.656 311.099,357.199 308.276 C 357.895 304.654,357.968 303.568,357.535 303.300 C 357.296 303.152,357.100 302.518,357.100 301.889 C 357.100 299.353,353.624 294.737,351.715 294.737 C 351.249 294.737,350.557 294.393,350.177 293.974 C 349.669 293.412,348.788 293.163,346.839 293.032 C 345.382 292.934,342.224 292.451,339.821 291.960 C 337.418 291.468,333.486 290.913,331.082 290.726 C 315.977 289.554,309.831 288.652,309.831 287.608 C 309.831 287.232,309.573 286.925,309.257 286.925 C 308.942 286.925,308.711 287.029,308.746 287.157 M98.411 290.657 C 97.592 290.742,96.251 290.742,95.432 290.657 C 94.613 290.571,95.283 290.501,96.922 290.501 C 98.560 290.501,99.230 290.571,98.411 290.657 M309.936 290.647 C 309.447 290.741,308.554 290.744,307.950 290.652 C 307.346 290.561,307.746 290.484,308.838 290.481 C 309.930 290.478,310.425 290.553,309.936 290.647 M89.157 291.325 C 88.438 291.851,88.483 291.902,89.880 292.164 C 90.852 292.347,91.573 292.275,91.956 291.957 C 92.278 291.689,92.822 291.578,93.164 291.709 C 93.571 291.865,93.687 291.788,93.501 291.487 C 93.308 291.175,93.440 291.113,93.910 291.293 C 94.291 291.439,95.991 291.559,97.688 291.559 C 100.202 291.559,100.942 291.706,101.688 292.354 C 102.192 292.790,102.934 293.148,103.338 293.148 C 103.741 293.148,104.071 293.336,104.071 293.565 C 104.071 293.795,104.652 294.226,105.362 294.523 C 106.072 294.821,106.778 295.189,106.930 295.343 C 107.082 295.496,108.423 296.047,109.909 296.567 L 112.612 297.512 203.774 297.511 C 253.913 297.510,295.377 297.391,295.918 297.246 C 296.458 297.100,297.352 296.745,297.904 296.457 C 298.456 296.169,299.086 295.932,299.305 295.929 C 300.503 295.917,305.156 293.007,305.513 292.046 C 305.594 291.829,306.942 291.580,308.509 291.494 C 310.244 291.399,311.267 291.485,311.125 291.715 C 310.991 291.933,311.192 291.976,311.604 291.818 C 311.995 291.668,312.559 291.747,312.856 291.994 C 313.193 292.274,313.959 292.338,314.886 292.164 C 316.284 291.902,316.328 291.851,315.609 291.325 C 314.864 290.780,314.867 290.765,315.714 290.765 C 316.501 290.765,316.780 291.171,316.621 292.085 C 316.590 292.265,316.719 292.317,316.909 292.199 C 317.444 291.869,320.159 292.733,320.159 293.233 C 320.159 293.477,320.274 293.563,320.414 293.422 C 320.554 293.282,320.420 292.860,320.116 292.485 C 319.660 291.924,319.659 291.861,320.106 292.131 C 321.296 292.848,323.337 293.087,323.337 292.510 C 323.337 292.144,322.831 291.939,321.847 291.904 L 320.357 291.852 321.748 291.599 C 322.817 291.405,323.258 291.509,323.657 292.049 C 324.003 292.517,324.707 292.751,325.769 292.751 C 326.644 292.751,327.728 292.947,328.177 293.188 C 328.771 293.505,328.920 293.505,328.724 293.188 C 328.267 292.449,328.992 292.703,330.029 293.644 C 330.569 294.136,330.896 294.335,330.754 294.087 C 330.605 293.826,330.872 293.532,331.385 293.392 C 332.127 293.188,332.176 293.083,331.678 292.757 C 331.351 292.542,331.202 292.363,331.348 292.360 C 331.494 292.356,331.899 292.244,332.249 292.110 C 332.792 291.901,332.825 292.023,332.473 292.949 C 332.118 293.882,332.151 293.998,332.708 293.785 C 333.174 293.606,333.291 293.705,333.125 294.137 C 332.999 294.467,333.068 294.737,333.280 294.737 C 333.491 294.737,333.664 294.574,333.664 294.376 C 333.664 293.911,337.219 293.936,338.133 294.407 C 338.660 294.678,338.828 294.605,338.828 294.103 C 338.828 293.553,338.524 293.476,337.021 293.646 C 336.027 293.758,335.310 293.753,335.428 293.635 C 335.775 293.288,339.209 292.853,339.006 293.182 C 338.904 293.347,339.310 293.866,339.907 294.336 C 340.532 294.828,341.054 295.011,341.135 294.769 C 341.233 294.473,341.523 294.478,342.098 294.786 C 342.787 295.155,342.882 295.124,342.679 294.597 C 342.547 294.251,342.609 293.862,342.818 293.733 C 343.027 293.604,343.198 293.788,343.198 294.141 C 343.198 294.495,343.374 294.675,343.590 294.541 C 343.806 294.408,343.892 294.536,343.780 294.827 C 343.648 295.171,343.927 295.386,344.579 295.439 C 345.130 295.485,345.581 295.366,345.581 295.176 C 345.581 294.985,345.955 294.732,346.412 294.612 C 347.220 294.401,347.223 294.417,346.522 295.191 C 346.126 295.629,345.976 295.936,346.188 295.873 C 346.400 295.811,346.976 295.983,347.468 296.255 C 348.188 296.655,348.363 296.652,348.368 296.240 C 348.372 295.881,348.488 295.907,348.759 296.326 C 349.079 296.822,349.150 296.788,349.181 296.127 C 349.211 295.501,349.303 295.564,349.618 296.427 C 349.838 297.030,350.182 297.421,350.381 297.298 C 350.581 297.174,350.748 297.307,350.751 297.593 C 350.755 297.971,350.862 297.950,351.142 297.517 C 351.462 297.023,351.530 297.056,351.546 297.716 C 351.564 298.500,351.572 298.500,352.148 297.739 C 352.468 297.315,352.744 297.047,352.760 297.144 C 353.044 298.827,353.243 299.337,353.719 299.604 C 354.031 299.779,354.186 300.185,354.062 300.507 C 353.914 300.892,354.090 301.094,354.575 301.098 C 355.124 301.103,355.179 301.190,354.789 301.436 C 354.409 301.678,354.598 301.905,355.480 302.271 C 356.147 302.547,356.594 302.933,356.474 303.128 C 356.354 303.322,355.986 303.212,355.656 302.883 C 354.939 302.166,354.466 302.124,354.083 302.743 C 353.902 303.035,353.975 303.093,354.283 302.902 C 354.770 302.601,356.306 303.692,356.306 304.339 C 356.306 304.528,355.843 304.599,355.278 304.496 C 354.427 304.342,354.301 304.426,354.549 304.985 C 354.713 305.357,354.862 306.063,354.881 306.554 C 354.919 307.547,355.909 307.811,355.909 306.829 C 355.909 306.488,356.096 306.325,356.325 306.467 C 356.929 306.840,355.994 307.845,355.042 307.845 C 354.619 307.845,354.383 308.024,354.518 308.242 C 354.653 308.461,354.564 308.640,354.320 308.640 C 354.076 308.640,353.986 308.818,354.121 309.037 C 354.256 309.255,354.133 309.437,353.847 309.440 C 353.422 309.445,353.421 309.506,353.842 309.773 C 354.254 310.034,354.235 310.201,353.747 310.606 C 353.246 311.022,353.096 311.004,352.903 310.502 C 352.697 309.964,352.590 309.970,351.983 310.557 C 351.533 310.993,351.441 311.322,351.716 311.513 C 351.963 311.686,351.845 311.808,351.427 311.811 C 351.038 311.815,350.615 312.091,350.487 312.425 C 350.283 312.957,350.193 312.950,349.766 312.366 C 349.331 311.771,349.283 311.800,349.317 312.633 C 349.348 313.416,349.146 313.579,348.064 313.639 C 347.354 313.678,346.773 313.533,346.773 313.316 C 346.773 313.099,346.413 313.343,345.972 313.859 C 345.532 314.374,345.196 314.618,345.225 314.399 C 345.345 313.493,345.141 313.449,344.375 314.215 C 343.930 314.660,343.419 314.934,343.241 314.823 C 343.062 314.712,343.004 315.087,343.113 315.655 C 343.259 316.418,343.166 316.637,342.757 316.495 C 342.453 316.389,342.263 315.984,342.334 315.595 C 342.434 315.047,342.299 314.955,341.738 315.189 C 341.339 315.355,340.566 315.527,340.020 315.571 C 339.474 315.616,338.580 315.891,338.034 316.183 C 337.095 316.685,337.073 316.675,337.637 315.988 C 338.193 315.310,338.175 315.293,337.355 315.729 C 336.873 315.986,335.711 316.175,334.774 316.149 C 331.924 316.070,328.722 316.600,328.382 317.207 C 328.207 317.520,327.849 317.773,327.587 317.769 C 327.263 317.765,327.283 317.654,327.649 317.422 C 328.056 317.164,328.072 317.008,327.714 316.787 C 327.453 316.626,327.047 316.687,326.811 316.922 C 326.505 317.229,326.236 317.156,325.866 316.669 C 325.581 316.295,325.342 316.187,325.335 316.431 C 325.321 316.943,321.818 318.376,321.459 318.016 C 321.326 317.884,321.494 317.776,321.832 317.776 C 322.169 317.776,322.667 317.507,322.939 317.180 C 323.588 316.399,323.157 316.423,321.915 317.237 C 321.076 317.787,320.260 317.848,316.765 317.622 C 314.481 317.474,312.612 317.505,312.612 317.691 C 312.612 317.876,311.986 317.979,311.221 317.919 C 310.457 317.858,309.831 317.975,309.831 318.177 C 309.831 318.379,309.556 318.440,309.221 318.311 C 308.885 318.182,308.285 318.371,307.887 318.730 C 307.242 319.315,307.111 319.320,306.662 318.779 C 306.016 318.001,303.721 317.994,303.078 318.769 C 302.677 319.253,301.393 319.364,296.228 319.364 C 290.624 319.364,289.931 319.294,290.367 318.769 C 291.144 317.833,289.750 318.001,288.031 319.049 C 287.048 319.649,286.757 319.723,287.110 319.283 C 287.620 318.648,287.060 317.773,286.501 318.332 C 286.370 318.463,286.516 318.577,286.826 318.586 C 287.135 318.595,286.885 318.874,286.271 319.208 C 285.544 319.601,284.727 319.720,283.937 319.547 C 283.101 319.363,282.805 319.415,282.990 319.715 C 283.156 319.983,283.032 320.063,282.666 319.922 C 282.341 319.797,281.750 319.883,281.355 320.114 C 280.732 320.476,280.795 320.537,281.827 320.572 C 282.856 320.606,282.910 320.659,282.224 320.953 C 281.787 321.141,272.850 321.284,262.363 321.270 C 251.877 321.257,243.923 321.114,244.687 320.953 C 245.800 320.719,245.879 320.649,245.084 320.602 C 244.366 320.560,244.241 320.449,244.630 320.202 C 244.927 320.015,245.016 319.778,244.829 319.677 C 244.342 319.413,242.649 320.371,242.993 320.716 C 243.151 320.874,242.777 320.812,242.163 320.578 C 241.548 320.344,240.862 320.267,240.637 320.406 C 240.413 320.544,240.073 320.412,239.882 320.110 C 239.611 319.683,239.534 319.722,239.529 320.290 C 239.524 320.880,239.312 320.970,238.398 320.769 C 237.779 320.633,236.483 320.700,235.518 320.918 C 234.411 321.168,233.715 321.175,233.631 320.935 C 233.451 320.420,171.315 320.420,171.135 320.935 C 171.052 321.175,170.355 321.168,169.248 320.918 C 168.283 320.700,166.987 320.633,166.368 320.769 C 165.454 320.970,165.242 320.880,165.237 320.290 C 165.232 319.722,165.155 319.683,164.884 320.110 C 164.694 320.412,164.354 320.544,164.129 320.406 C 163.905 320.267,163.218 320.344,162.604 320.578 C 161.989 320.812,161.616 320.874,161.774 320.716 C 162.118 320.371,160.425 319.413,159.938 319.677 C 159.751 319.778,159.840 320.015,160.136 320.202 C 160.526 320.449,160.400 320.560,159.682 320.602 C 158.887 320.649,158.967 320.719,160.079 320.953 C 160.844 321.114,152.890 321.257,142.403 321.270 C 131.917 321.284,122.979 321.141,122.542 320.953 C 121.856 320.659,121.911 320.606,122.939 320.572 C 123.971 320.537,124.035 320.476,123.412 320.114 C 123.016 319.883,122.426 319.797,122.100 319.922 C 121.774 320.048,121.606 319.991,121.726 319.797 C 121.846 319.603,121.274 319.463,120.456 319.486 C 119.637 319.509,118.625 319.371,118.207 319.180 C 117.653 318.926,117.527 318.962,117.742 319.310 C 117.905 319.573,117.443 319.426,116.715 318.982 C 115.089 317.991,113.643 317.857,114.399 318.769 C 114.835 319.294,114.142 319.364,108.538 319.364 C 103.373 319.364,102.090 319.253,101.688 318.769 C 101.046 317.994,98.751 318.001,98.105 318.779 C 97.656 319.320,97.525 319.315,96.879 318.730 C 96.482 318.371,95.882 318.182,95.546 318.311 C 95.210 318.440,94.935 318.357,94.935 318.127 C 94.935 317.897,94.712 317.785,94.439 317.877 C 94.166 317.969,93.706 317.760,93.416 317.413 C 93.127 317.066,92.992 316.987,93.116 317.237 C 93.240 317.488,93.075 317.795,92.748 317.920 C 92.422 318.045,92.155 317.969,92.155 317.751 C 92.155 317.494,90.685 317.448,88.002 317.622 C 84.507 317.848,83.691 317.787,82.852 317.237 C 81.609 316.423,81.179 316.399,81.827 317.180 C 82.099 317.507,82.598 317.776,82.935 317.776 C 83.272 317.776,83.440 317.884,83.308 318.016 C 82.948 318.376,79.446 316.943,79.431 316.431 C 79.424 316.187,79.186 316.295,78.901 316.669 C 78.531 317.156,78.261 317.229,77.955 316.922 C 77.720 316.687,77.314 316.626,77.053 316.787 C 76.695 317.008,76.711 317.164,77.117 317.422 C 77.484 317.654,77.504 317.765,77.180 317.769 C 76.917 317.773,76.560 317.520,76.385 317.207 C 76.045 316.600,72.843 316.070,69.993 316.149 C 69.055 316.175,67.893 315.986,67.411 315.729 C 66.592 315.293,66.573 315.310,67.130 315.988 C 67.694 316.675,67.672 316.685,66.733 316.183 C 66.187 315.891,65.293 315.616,64.747 315.571 C 64.201 315.527,63.428 315.355,63.029 315.189 C 62.468 314.955,62.333 315.047,62.433 315.595 C 62.504 315.984,62.313 316.389,62.009 316.495 C 61.601 316.637,61.508 316.418,61.654 315.655 C 61.763 315.087,61.705 314.712,61.526 314.823 C 61.347 314.934,60.837 314.660,60.392 314.215 C 59.626 313.449,59.416 313.494,59.546 314.399 C 59.577 314.618,59.266 314.370,58.855 313.849 C 58.444 313.327,58.005 313.068,57.879 313.272 C 57.347 314.132,55.411 313.635,55.450 312.648 C 55.486 311.757,55.455 311.744,54.953 312.430 C 54.660 312.832,54.419 312.943,54.419 312.678 C 54.419 312.412,53.976 312.026,53.434 311.820 C 52.779 311.571,52.526 311.241,52.682 310.837 C 52.832 310.446,52.687 310.228,52.277 310.228 C 51.926 310.228,51.639 310.429,51.639 310.674 C 51.639 310.976,51.440 310.956,51.024 310.610 C 50.533 310.203,50.513 310.034,50.925 309.773 C 51.346 309.506,51.345 309.445,50.920 309.440 C 50.634 309.437,50.510 309.255,50.645 309.037 C 50.781 308.818,50.691 308.640,50.447 308.640 C 50.203 308.640,50.113 308.461,50.248 308.242 C 50.392 308.010,49.980 307.845,49.255 307.845 C 48.574 307.845,48.117 307.683,48.239 307.485 C 48.361 307.287,48.774 307.207,49.156 307.307 C 49.663 307.440,49.860 307.242,49.885 306.574 C 49.904 306.072,50.046 305.377,50.200 305.031 C 50.385 304.618,50.284 304.403,49.906 304.403 C 49.573 304.403,49.404 304.668,49.504 305.031 C 49.599 305.377,49.467 305.262,49.211 304.776 C 48.666 303.741,49.393 302.497,50.333 302.857 C 50.655 302.981,50.777 302.895,50.626 302.650 C 50.483 302.419,50.072 302.332,49.712 302.457 C 49.174 302.643,49.185 302.584,49.773 302.126 C 50.310 301.709,50.359 301.518,49.971 301.362 C 49.644 301.231,49.715 301.144,50.166 301.124 C 50.616 301.104,50.836 300.836,50.762 300.397 C 50.684 299.933,50.943 299.660,51.539 299.575 C 52.365 299.458,52.851 298.709,52.102 298.709 C 51.920 298.709,51.771 298.435,51.771 298.100 C 51.771 297.681,51.899 297.619,52.181 297.901 C 52.795 298.515,53.227 298.398,53.233 297.617 C 53.239 297.023,53.296 297.008,53.625 297.517 C 53.904 297.950,54.011 297.971,54.016 297.593 C 54.019 297.307,54.185 297.174,54.385 297.298 C 54.585 297.421,54.928 297.030,55.148 296.427 C 55.464 295.564,55.556 295.501,55.585 296.127 C 55.617 296.788,55.688 296.822,56.008 296.326 C 56.279 295.907,56.395 295.881,56.399 296.240 C 56.404 296.652,56.579 296.655,57.299 296.255 C 57.790 295.983,58.357 295.808,58.558 295.867 C 58.759 295.925,58.688 295.691,58.402 295.345 C 57.713 294.516,58.129 294.134,58.890 294.896 C 59.628 295.633,61.276 295.581,60.988 294.830 C 60.875 294.537,60.960 294.408,61.176 294.541 C 61.392 294.675,61.569 294.495,61.569 294.141 C 61.569 293.788,61.740 293.604,61.949 293.733 C 62.158 293.862,62.220 294.251,62.087 294.597 C 61.885 295.125,61.979 295.155,62.674 294.783 C 63.735 294.216,64.073 294.220,63.716 294.798 C 63.526 295.106,63.616 295.151,63.990 294.936 C 65.032 294.338,65.920 293.440,65.748 293.160 C 65.553 292.846,69.006 293.302,69.338 293.635 C 69.456 293.753,68.739 293.758,67.746 293.646 C 66.234 293.475,65.938 293.552,65.938 294.113 C 65.938 294.550,66.111 294.676,66.435 294.474 C 67.137 294.036,71.102 293.960,71.102 294.385 C 71.102 294.579,71.275 294.737,71.487 294.737 C 71.699 294.737,71.768 294.467,71.641 294.137 C 71.476 293.705,71.593 293.606,72.059 293.785 C 72.610 293.996,72.648 293.880,72.311 292.995 C 71.882 291.867,71.907 291.833,72.891 292.210 C 73.419 292.413,73.446 292.533,73.022 292.806 C 72.622 293.064,72.710 293.208,73.382 293.392 C 73.899 293.533,74.161 293.825,74.009 294.087 C 73.864 294.335,74.090 294.253,74.510 293.904 C 75.711 292.905,76.441 292.544,76.081 293.126 C 75.841 293.514,75.953 293.528,76.589 293.188 C 77.038 292.947,78.122 292.751,78.998 292.751 C 80.117 292.751,80.749 292.524,81.124 291.989 C 81.564 291.361,81.899 291.284,83.033 291.551 L 84.409 291.875 82.920 291.916 C 81.930 291.943,81.430 292.142,81.430 292.510 C 81.430 293.087,83.471 292.848,84.660 292.131 C 85.108 291.861,85.106 291.924,84.650 292.485 C 84.346 292.860,84.212 293.282,84.353 293.422 C 84.493 293.563,84.608 293.477,84.608 293.233 C 84.608 292.733,87.323 291.869,87.857 292.199 C 88.047 292.317,88.177 292.265,88.146 292.085 C 87.987 291.171,88.266 290.765,89.053 290.765 C 89.899 290.765,89.902 290.780,89.157 291.325 M85.998 316.981 C 85.852 317.217,86.317 317.378,87.143 317.378 C 87.907 317.378,88.644 317.200,88.779 316.981 C 88.924 316.745,88.459 316.584,87.634 316.584 C 86.869 316.584,86.133 316.763,85.998 316.981 M315.988 316.981 C 316.123 317.200,316.859 317.378,317.624 317.378 C 318.450 317.378,318.914 317.217,318.769 316.981 C 318.634 316.763,317.898 316.584,317.133 316.584 C 316.307 316.584,315.842 316.745,315.988 316.981 M69.811 317.255 C 69.429 317.355,68.803 317.355,68.421 317.255 C 68.039 317.155,68.352 317.073,69.116 317.073 C 69.881 317.073,70.194 317.155,69.811 317.255 M84.713 318.850 C 84.224 318.944,83.330 318.946,82.726 318.855 C 82.123 318.764,82.522 318.687,83.615 318.684 C 84.707 318.681,85.201 318.755,84.713 318.850 M322.250 318.850 C 321.761 318.944,320.867 318.946,320.264 318.855 C 319.660 318.764,320.060 318.687,321.152 318.684 C 322.244 318.681,322.738 318.755,322.250 318.850 M119.516 320.585 C 118.963 320.927,118.371 320.714,118.371 320.173 C 118.371 319.988,118.744 319.933,119.199 320.053 C 119.803 320.210,119.889 320.355,119.516 320.585 M286.224 320.512 C 286.086 320.736,285.679 320.806,285.319 320.668 C 284.745 320.448,284.758 320.384,285.431 320.139 C 286.319 319.817,286.578 319.939,286.224 320.512 M112.910 320.455 C 110.889 320.527,107.582 320.527,105.561 320.455 C 103.540 320.383,105.194 320.324,109.235 320.324 C 113.277 320.324,114.930 320.383,112.910 320.455 M299.206 320.455 C 297.185 320.527,293.878 320.527,291.857 320.455 C 289.836 320.383,291.490 320.324,295.531 320.324 C 299.573 320.324,301.226 320.383,299.206 320.455 M168.724 322.021 C 168.344 322.120,167.629 322.124,167.135 322.029 C 166.641 321.934,166.951 321.852,167.825 321.848 C 168.699 321.844,169.103 321.921,168.724 322.021 M237.840 322.021 C 237.460 322.120,236.745 322.124,236.251 322.029 C 235.757 321.934,236.068 321.852,236.941 321.848 C 237.815 321.844,238.220 321.921,237.840 322.021 M226.740 343.964 C 226.165 344.416,225.124 344.786,224.428 344.786 C 223.523 344.786,223.107 344.999,222.967 345.536 C 222.834 346.046,222.276 346.364,221.217 346.533 C 220.217 346.693,219.662 346.993,219.662 347.373 C 219.662 347.698,219.389 347.964,219.054 347.964 C 218.720 347.964,218.329 348.277,218.186 348.659 C 218.044 349.042,217.603 349.588,217.206 349.874 C 216.802 350.165,216.485 350.886,216.485 351.515 C 216.485 352.304,216.248 352.700,215.690 352.846 C 215.082 353.005,214.896 353.388,214.896 354.481 C 214.896 355.436,214.713 355.909,214.342 355.909 C 212.931 355.909,212.702 373.399,214.101 374.273 C 214.667 374.626,214.896 375.199,214.896 376.262 C 214.896 377.491,215.037 377.756,215.690 377.756 C 216.330 377.756,216.485 378.021,216.485 379.119 C 216.485 380.134,216.688 380.547,217.279 380.735 C 217.716 380.874,218.073 381.260,218.073 381.593 C 218.073 381.927,218.431 382.293,218.868 382.407 C 219.305 382.522,219.662 382.843,219.662 383.122 C 219.662 383.720,220.540 384.111,221.880 384.111 C 222.469 384.111,222.840 384.342,222.840 384.707 C 222.840 385.134,223.276 385.303,224.383 385.303 C 225.591 385.303,225.970 385.475,226.133 386.097 C 226.330 386.852,226.675 386.892,232.969 386.892 C 239.264 386.892,239.608 386.852,239.805 386.097 C 239.967 385.481,240.347 385.303,241.507 385.303 C 242.350 385.303,243.216 385.043,243.496 384.707 C 243.768 384.379,244.324 384.111,244.732 384.111 C 245.141 384.111,245.698 383.754,245.971 383.317 C 246.244 382.880,246.692 382.522,246.967 382.522 C 247.243 382.522,247.468 382.186,247.468 381.774 C 247.468 381.360,247.822 380.933,248.262 380.818 C 248.719 380.699,249.057 380.277,249.057 379.825 C 249.057 379.374,249.395 378.952,249.851 378.832 C 250.451 378.675,250.645 378.290,250.645 377.259 C 250.645 376.397,250.939 375.627,251.440 375.174 C 252.191 374.494,252.234 373.950,252.234 365.182 C 252.234 356.173,252.212 355.909,251.440 355.909 C 250.781 355.909,250.645 355.644,250.645 354.352 C 250.645 352.412,250.324 351.539,249.610 351.539 C 249.285 351.539,249.057 351.130,249.057 350.546 C 249.057 349.818,248.845 349.553,248.262 349.553 C 247.733 349.553,247.468 349.288,247.468 348.759 C 247.468 348.322,247.243 347.964,246.967 347.964 C 246.692 347.964,246.244 347.607,245.971 347.170 C 245.662 346.675,245.045 346.375,244.333 346.375 C 243.525 346.375,243.130 346.143,242.983 345.581 C 242.822 344.965,242.441 344.786,241.292 344.786 C 240.338 344.786,239.629 344.539,239.302 344.091 C 238.455 342.931,228.185 342.827,226.740 343.964 M77.458 345.567 C 77.458 345.996,77.100 346.539,76.663 346.773 C 76.037 347.108,75.869 347.604,75.869 349.124 C 75.869 350.715,75.731 351.085,75.074 351.257 C 74.469 351.416,74.280 351.799,74.280 352.873 C 74.280 353.762,74.041 354.414,73.631 354.643 C 73.214 354.877,72.913 355.723,72.789 357.013 C 72.642 358.545,72.420 359.065,71.849 359.214 C 71.230 359.376,71.102 359.790,71.102 361.631 C 71.102 363.588,71.008 363.853,70.308 363.853 C 69.646 363.853,69.513 364.118,69.513 365.442 C 69.513 366.530,69.340 367.031,68.964 367.031 C 68.349 367.031,67.938 368.216,67.930 370.014 C 67.926 370.775,67.636 371.389,67.130 371.705 C 66.579 372.049,66.336 372.632,66.336 373.605 C 66.336 374.459,66.025 375.342,65.541 375.861 C 65.089 376.346,64.747 377.263,64.747 377.987 C 64.747 378.752,64.509 379.351,64.151 379.488 C 63.699 379.661,63.555 380.394,63.555 382.510 L 63.555 385.303 68.918 385.303 L 74.280 385.303 74.280 383.939 C 74.280 382.925,74.483 382.511,75.074 382.324 C 75.740 382.112,75.869 381.723,75.869 379.914 L 75.869 377.756 82.820 377.756 L 89.772 377.756 89.772 378.944 C 89.772 379.702,90.059 380.312,90.566 380.628 C 91.072 380.944,91.362 381.559,91.366 382.320 C 91.380 385.405,91.155 385.303,97.961 385.303 L 104.071 385.303 104.071 383.974 C 104.071 383.150,103.770 382.373,103.277 381.927 C 102.840 381.531,102.483 380.714,102.483 380.110 C 102.483 378.609,102.107 377.756,101.447 377.756 C 101.066 377.756,100.894 377.260,100.894 376.167 C 100.894 375.108,100.629 374.313,100.099 373.784 C 99.613 373.298,99.305 372.459,99.305 371.626 C 99.305 370.611,99.102 370.198,98.510 370.010 C 97.874 369.808,97.716 369.409,97.716 368.000 C 97.716 366.673,97.522 366.122,96.922 365.747 C 96.356 365.394,96.127 364.821,96.127 363.757 C 96.127 362.529,95.986 362.264,95.333 362.264 C 94.658 362.264,94.538 361.999,94.538 360.509 C 94.538 358.377,94.236 357.498,93.503 357.498 C 93.122 357.498,92.949 357.002,92.949 355.909 C 92.949 354.585,92.817 354.320,92.155 354.320 C 91.455 354.320,91.360 354.055,91.360 352.098 C 91.360 350.210,91.241 349.845,90.566 349.668 C 89.972 349.513,89.772 349.126,89.772 348.135 C 89.772 345.374,88.513 344.786,82.604 344.786 C 77.753 344.786,77.458 344.831,77.458 345.567 M105.660 365.056 L 105.660 385.326 110.924 385.215 L 116.187 385.104 116.295 378.252 L 116.404 371.400 122.589 371.400 C 128.439 371.400,128.785 371.357,128.981 370.606 C 129.137 370.009,129.523 369.811,130.533 369.811 C 131.612 369.811,131.877 369.655,131.877 369.017 C 131.877 368.487,132.142 368.222,132.671 368.222 C 133.201 368.222,133.466 367.958,133.466 367.428 C 133.466 366.898,133.731 366.634,134.260 366.634 C 134.773 366.634,135.055 366.369,135.055 365.885 C 135.055 365.471,135.409 365.045,135.849 364.930 C 136.604 364.732,136.643 364.388,136.643 357.932 C 136.643 351.407,136.613 351.142,135.849 351.142 C 135.187 351.142,135.055 350.877,135.055 349.553 C 135.055 348.229,134.922 347.964,134.260 347.964 C 133.812 347.964,133.466 347.699,133.466 347.356 C 133.466 347.021,133.153 346.633,132.771 346.494 C 132.388 346.354,131.649 345.913,131.128 345.513 C 130.257 344.845,129.191 344.786,117.921 344.786 L 105.660 344.786 105.660 365.056 M140.263 345.328 C 139.939 345.719,139.842 351.332,139.917 365.487 L 140.020 385.104 145.482 385.215 L 150.943 385.325 150.943 378.363 L 150.943 371.400 157.895 371.400 C 164.581 371.400,164.846 371.370,164.846 370.606 C 164.846 369.944,165.111 369.811,166.435 369.811 C 167.759 369.811,168.024 369.679,168.024 369.017 C 168.024 368.487,168.289 368.222,168.818 368.222 C 169.331 368.222,169.613 367.958,169.613 367.474 C 169.613 367.060,169.967 366.633,170.407 366.518 C 171.009 366.361,171.202 365.977,171.202 364.930 C 171.202 363.865,171.391 363.499,172.027 363.333 C 173.144 363.040,173.070 352.348,171.944 351.456 C 171.588 351.174,171.185 350.459,171.047 349.868 C 170.699 348.367,169.154 346.820,167.716 346.532 C 166.994 346.388,166.426 345.987,166.309 345.538 C 166.050 344.550,141.077 344.348,140.263 345.328 M175.968 365.045 L 175.968 385.303 181.331 385.303 L 186.693 385.303 186.693 377.557 L 186.693 369.811 188.236 369.811 C 189.444 369.811,189.823 369.983,189.986 370.606 C 190.100 371.043,190.458 371.400,190.780 371.400 C 191.103 371.400,191.461 371.758,191.575 372.195 C 191.689 372.632,192.067 372.989,192.416 372.989 C 192.784 372.989,193.049 373.321,193.049 373.784 C 193.049 374.313,193.313 374.578,193.843 374.578 C 194.458 374.578,194.638 374.843,194.638 375.747 C 194.638 376.421,194.943 377.136,195.359 377.435 C 195.756 377.721,196.197 378.267,196.339 378.649 C 196.482 379.032,196.872 379.345,197.207 379.345 C 197.622 379.345,197.815 379.735,197.815 380.573 C 197.815 381.468,198.031 381.859,198.610 382.010 C 199.066 382.129,199.404 382.552,199.404 383.003 C 199.404 383.454,199.742 383.877,200.199 383.996 C 200.636 384.110,200.993 384.451,200.993 384.753 C 200.993 385.198,202.173 385.303,207.150 385.303 L 213.307 385.303 213.307 383.913 C 213.307 382.787,213.156 382.522,212.512 382.522 C 211.865 382.522,211.718 382.258,211.718 381.095 C 211.718 380.001,211.532 379.619,210.924 379.460 C 210.484 379.345,210.129 378.918,210.129 378.504 C 210.129 378.092,209.772 377.398,209.335 376.961 C 208.898 376.524,208.540 375.809,208.540 375.372 C 208.540 374.843,208.275 374.578,207.746 374.578 C 207.123 374.578,206.951 374.313,206.951 373.349 C 206.951 372.454,206.735 372.064,206.157 371.913 C 205.700 371.793,205.362 371.371,205.362 370.919 C 205.362 370.481,205.028 370.047,204.605 369.936 C 203.535 369.656,203.215 368.190,204.169 367.941 C 204.577 367.834,205.006 367.496,205.124 367.190 C 205.241 366.884,205.701 366.634,206.144 366.634 C 206.687 366.634,206.951 366.373,206.951 365.839 C 206.951 365.310,207.216 365.045,207.746 365.045 C 208.408 365.045,208.540 364.780,208.540 363.456 C 208.540 362.132,208.673 361.867,209.335 361.867 C 210.090 361.867,210.129 361.602,210.129 356.504 C 210.129 351.407,210.090 351.142,209.335 351.142 C 208.688 351.142,208.540 350.877,208.540 349.715 C 208.540 348.621,208.354 348.238,207.746 348.079 C 207.309 347.965,206.951 347.619,206.951 347.310 C 206.951 347.001,206.639 346.633,206.256 346.494 C 205.874 346.354,205.135 345.913,204.614 345.513 C 203.738 344.841,202.627 344.786,189.817 344.786 L 175.968 344.786 175.968 365.045 M252.632 347.170 C 252.632 349.024,252.764 349.553,253.227 349.553 C 253.677 349.553,253.823 350.038,253.823 351.536 C 253.823 353.088,253.996 353.626,254.618 354.015 C 255.211 354.385,255.412 354.941,255.412 356.207 C 255.412 357.411,255.642 358.100,256.207 358.583 C 256.643 358.957,257.001 359.648,257.001 360.118 C 257.001 361.769,257.502 363.456,257.993 363.456 C 258.299 363.456,258.564 364.235,258.685 365.496 C 258.812 366.815,259.110 367.664,259.530 367.899 C 259.959 368.139,260.179 368.792,260.179 369.828 C 260.179 370.963,260.397 371.530,260.973 371.890 C 261.570 372.262,261.768 372.816,261.768 374.115 C 261.768 375.510,261.921 375.884,262.562 376.052 C 263.235 376.228,263.357 376.594,263.357 378.435 C 263.357 380.277,263.478 380.643,264.151 380.818 C 264.821 380.994,264.945 381.360,264.945 383.165 L 264.945 385.303 271.102 385.303 L 277.259 385.303 277.259 383.959 C 277.259 382.949,277.457 382.563,278.054 382.407 C 278.675 382.245,278.848 381.865,278.848 380.662 C 278.848 379.615,279.102 378.906,279.643 378.444 C 280.219 377.950,280.437 377.272,280.437 375.972 C 280.437 374.706,280.599 374.181,280.990 374.181 C 281.695 374.181,282.026 373.312,282.026 371.463 C 282.026 370.433,282.260 369.856,282.820 369.506 C 283.438 369.120,283.615 368.580,283.615 367.074 C 283.615 365.471,283.752 365.102,284.409 364.930 C 285.082 364.754,285.204 364.388,285.204 362.546 C 285.204 360.705,285.326 360.339,285.998 360.163 C 286.660 359.990,286.792 359.621,286.792 357.959 C 286.792 356.311,286.931 355.918,287.587 355.710 C 288.250 355.500,288.381 355.109,288.381 353.346 C 288.381 351.569,288.507 351.202,289.176 351.027 C 289.823 350.858,289.970 350.485,289.970 349.018 C 289.970 348.027,290.147 347.107,290.363 346.974 C 290.604 346.825,290.506 346.350,290.111 345.748 C 289.473 344.774,289.417 344.765,284.257 344.875 L 279.047 344.985 278.919 346.551 C 278.849 347.412,278.518 348.317,278.183 348.561 C 277.847 348.807,277.480 349.881,277.361 350.968 C 277.243 352.047,276.904 353.282,276.607 353.713 C 276.310 354.144,276.068 355.311,276.068 356.307 C 276.068 357.661,275.868 358.261,275.273 358.689 C 274.648 359.140,274.479 359.717,274.479 361.396 C 274.479 363.196,274.354 363.563,273.684 363.738 C 273.014 363.913,272.890 364.280,272.890 366.084 C 272.890 367.740,272.752 368.222,272.281 368.222 C 271.946 368.222,271.511 368.625,271.313 369.116 C 271.035 369.810,270.948 369.498,270.929 367.726 C 270.910 365.972,270.765 365.442,270.308 365.442 C 269.849 365.442,269.712 364.930,269.712 363.220 C 269.712 361.332,269.593 360.967,268.918 360.790 C 268.245 360.615,268.123 360.249,268.123 358.407 C 268.123 356.566,268.001 356.200,267.329 356.024 C 266.690 355.857,266.534 355.482,266.534 354.107 C 266.534 352.020,266.228 351.142,265.499 351.142 C 265.100 351.142,264.945 350.589,264.945 349.159 C 264.945 347.607,264.773 347.069,264.151 346.680 C 263.714 346.408,263.357 345.870,263.357 345.485 C 263.357 344.853,262.847 344.786,257.994 344.786 L 252.632 344.786 252.632 347.170 M298.190 345.041 C 298.038 345.192,297.915 345.912,297.915 346.640 C 297.915 347.435,297.597 348.282,297.120 348.759 C 296.598 349.280,296.326 350.083,296.326 351.096 C 296.326 352.304,296.154 352.683,295.531 352.846 C 294.856 353.022,294.737 353.388,294.737 355.276 C 294.737 357.233,294.642 357.498,293.942 357.498 C 293.299 357.498,293.148 357.762,293.148 358.888 C 293.148 359.748,292.845 360.581,292.354 361.072 C 291.794 361.632,291.559 362.397,291.559 363.654 C 291.559 365.177,291.441 365.442,290.765 365.442 C 290.069 365.442,289.970 365.707,289.970 367.580 C 289.970 369.385,289.846 369.751,289.176 369.926 C 288.580 370.082,288.381 370.468,288.381 371.473 C 288.381 372.321,288.090 373.062,287.587 373.493 C 287.016 373.981,286.792 374.665,286.792 375.918 C 286.792 377.329,286.640 377.703,285.998 377.871 C 285.349 378.040,285.204 378.413,285.204 379.900 C 285.204 381.291,285.016 381.838,284.409 382.217 C 283.879 382.549,283.615 383.144,283.615 384.008 L 283.615 385.303 289.003 385.303 C 295.549 385.303,295.929 385.150,295.929 382.508 C 295.929 380.801,296.035 380.536,296.723 380.536 C 297.366 380.536,297.517 380.271,297.517 379.146 L 297.517 377.756 303.885 377.756 C 309.179 377.756,310.292 377.856,310.482 378.352 C 310.608 378.679,310.960 378.947,311.264 378.947 C 311.647 378.947,311.817 379.448,311.817 380.573 C 311.817 381.865,311.980 382.242,312.612 382.407 C 313.209 382.563,313.406 382.949,313.406 383.959 L 313.406 385.303 318.769 385.303 L 324.131 385.303 324.131 382.485 C 324.131 380.001,324.037 379.643,323.337 379.460 C 322.714 379.297,322.542 378.918,322.542 377.709 C 322.542 376.432,322.406 376.167,321.748 376.167 C 321.051 376.167,320.953 375.902,320.953 374.009 C 320.953 372.200,320.825 371.810,320.159 371.599 C 319.541 371.403,319.364 370.998,319.364 369.781 C 319.364 368.706,319.115 368.001,318.570 367.534 C 318.036 367.077,317.776 366.363,317.776 365.354 C 317.776 364.285,317.604 363.853,317.180 363.853 C 316.749 363.853,316.584 363.412,316.584 362.264 C 316.584 361.205,316.319 360.410,315.789 359.881 C 315.290 359.381,314.995 358.557,314.995 357.659 C 314.995 356.596,314.804 356.182,314.248 356.036 C 313.677 355.887,313.455 355.367,313.308 353.835 C 313.184 352.545,312.884 351.699,312.466 351.466 C 312.056 351.236,311.817 350.584,311.817 349.695 C 311.817 348.634,311.627 348.237,311.044 348.085 C 310.489 347.940,310.237 347.474,310.151 346.434 L 310.030 344.985 304.247 344.876 C 301.067 344.815,298.341 344.890,298.190 345.041 M326.172 345.317 C 325.835 345.723,325.740 351.096,325.815 365.487 L 325.919 385.104 340.728 385.208 L 355.538 385.313 355.425 380.839 L 355.313 376.365 346.082 376.259 L 336.851 376.152 336.747 360.569 L 336.643 344.985 331.637 344.874 C 327.739 344.788,326.529 344.886,326.172 345.317 M234.141 353.367 C 234.400 353.720,235.420 354.095,236.435 354.209 C 237.786 354.362,238.315 354.611,238.459 355.162 C 238.567 355.573,238.939 355.909,239.288 355.909 C 239.724 355.909,239.921 356.274,239.921 357.086 C 239.921 357.857,240.195 358.411,240.715 358.689 C 241.457 359.086,241.509 359.521,241.509 365.231 C 241.509 370.998,241.464 371.361,240.715 371.599 C 240.124 371.786,239.921 372.200,239.921 373.214 C 239.921 374.251,239.753 374.578,239.222 374.578 C 238.837 374.578,238.300 374.935,238.027 375.372 C 237.720 375.864,237.100 376.167,236.404 376.167 C 235.782 376.167,234.955 376.523,234.558 376.961 C 234.163 377.398,233.509 377.756,233.106 377.756 C 232.703 377.756,232.016 377.398,231.579 376.961 C 231.142 376.524,230.338 376.167,229.791 376.167 C 229.194 376.167,228.798 375.940,228.798 375.598 C 228.798 375.285,228.441 374.915,228.004 374.777 C 227.567 374.638,227.210 374.280,227.210 373.982 C 227.210 373.684,226.852 373.326,226.415 373.188 C 225.978 373.049,225.621 372.633,225.621 372.263 C 225.621 371.894,225.263 371.368,224.826 371.095 C 224.091 370.636,224.032 370.169,224.032 364.843 C 224.032 359.351,224.068 359.086,224.826 359.086 C 225.409 359.086,225.621 358.822,225.621 358.093 C 225.621 357.450,225.843 357.100,226.254 357.100 C 226.602 357.100,226.980 356.743,227.094 356.306 C 227.209 355.869,227.555 355.511,227.864 355.511 C 228.173 355.511,228.524 355.257,228.643 354.945 C 228.763 354.634,229.562 354.261,230.418 354.116 C 231.371 353.955,231.976 353.635,231.976 353.292 C 231.976 352.526,233.567 352.581,234.141 353.367 M124.330 354.953 C 124.330 355.301,124.687 355.679,125.124 355.794 C 125.805 355.972,125.919 356.335,125.919 358.338 L 125.919 360.675 124.555 360.675 C 123.540 360.675,123.127 360.879,122.939 361.470 C 122.715 362.176,122.338 362.264,119.536 362.264 L 116.385 362.264 116.385 358.292 L 116.385 354.320 120.357 354.320 C 123.727 354.320,124.330 354.416,124.330 354.953 M160.079 354.953 C 160.079 355.301,160.437 355.679,160.874 355.794 C 161.872 356.054,162.034 358.861,161.072 359.230 C 160.745 359.356,160.477 359.732,160.477 360.067 C 160.477 360.410,160.131 360.675,159.682 360.675 C 159.153 360.675,158.888 360.940,158.888 361.470 C 158.888 362.211,158.623 362.264,154.916 362.264 L 150.943 362.264 150.943 358.292 L 150.943 354.320 155.511 354.320 C 159.426 354.320,160.079 354.410,160.079 354.953 M197.815 354.889 C 197.815 355.202,198.173 355.571,198.610 355.710 C 199.227 355.906,199.404 356.311,199.404 357.524 C 199.404 358.822,199.269 359.086,198.610 359.086 C 198.080 359.086,197.815 359.351,197.815 359.881 C 197.815 360.637,197.550 360.675,192.254 360.675 L 186.693 360.675 186.693 357.498 L 186.693 354.320 192.254 354.320 C 196.816 354.320,197.815 354.422,197.815 354.889 M83.813 361.821 C 83.813 363.029,83.985 363.408,84.608 363.571 C 85.283 363.747,85.402 364.113,85.402 366.001 L 85.402 368.222 83.019 368.222 L 80.636 368.222 80.636 366.634 C 80.636 365.546,80.809 365.045,81.185 365.045 C 81.832 365.045,82.211 363.842,82.219 361.768 C 82.223 360.545,82.367 360.278,83.019 360.278 C 83.677 360.278,83.813 360.543,83.813 361.821 M304.845 361.867 C 305.175 361.867,305.431 362.599,305.557 363.907 C 305.683 365.226,305.982 366.075,306.402 366.310 C 308.283 367.363,307.146 368.222,303.873 368.222 C 300.960 368.222,300.695 368.156,300.695 367.428 C 300.695 366.898,300.960 366.634,301.490 366.634 C 302.152 366.634,302.284 366.369,302.284 365.045 C 302.284 363.985,302.549 363.191,303.078 362.661 C 303.515 362.224,303.894 361.554,303.919 361.172 C 303.963 360.510,303.974 360.510,304.147 361.172 C 304.247 361.554,304.561 361.867,304.845 361.867 " stroke="none" fill="#747474" fill-rule="evenodd"></path><path id="path2" d="M191.511 45.879 C 191.442 48.000,191.625 48.366,192.454 47.760 C 193.012 47.351,193.241 45.117,192.690 45.458 C 192.427 45.620,192.354 45.485,192.500 45.105 C 192.630 44.765,192.529 44.489,192.273 44.489 C 192.019 44.489,191.921 44.310,192.056 44.091 C 192.191 43.873,192.139 43.694,191.942 43.694 C 191.744 43.694,191.550 44.677,191.511 45.879 M192.651 48.798 C 192.651 49.432,194.199 50.988,195.217 51.379 C 195.737 51.578,195.856 51.438,195.756 50.743 C 195.665 50.107,195.388 49.875,194.793 49.935 C 194.126 50.003,193.993 49.841,194.130 49.127 C 194.262 48.433,194.117 48.234,193.476 48.234 C 193.022 48.234,192.651 48.488,192.651 48.798 M213.752 48.422 C 213.451 48.613,213.313 48.944,213.445 49.158 C 213.756 49.661,212.353 50.940,211.920 50.547 C 211.739 50.383,211.719 50.472,211.877 50.746 C 212.199 51.305,213.704 50.720,213.704 50.036 C 213.704 49.825,213.972 49.652,214.300 49.652 C 214.631 49.652,214.896 49.299,214.896 48.858 C 214.896 47.996,214.603 47.884,213.752 48.422 M195.920 51.640 C 195.542 52.246,195.623 52.395,196.445 52.601 C 196.980 52.735,197.418 53.110,197.418 53.434 C 197.418 53.757,197.764 54.022,198.188 54.022 C 198.692 54.022,198.938 53.768,198.902 53.286 C 198.866 52.812,198.557 52.564,198.033 52.591 C 197.500 52.617,197.237 52.400,197.271 51.960 C 197.344 51.003,196.451 50.791,195.920 51.640 M208.456 53.146 C 208.066 53.627,208.063 53.706,208.441 53.479 C 208.714 53.315,208.937 53.370,208.937 53.601 C 208.937 53.833,209.295 54.022,209.732 54.022 C 210.169 54.022,210.526 53.775,210.526 53.472 C 210.526 52.649,209.047 52.416,208.456 53.146 M121.968 73.540 C 118.405 74.131,115.708 76.090,113.569 79.643 L 112.612 81.231 112.637 177.954 C 112.666 287.512,112.281 275.898,116.007 279.624 C 119.597 283.213,110.373 282.868,201.695 282.833 C 285.439 282.801,286.367 282.787,287.938 281.569 C 288.459 281.165,289.054 280.834,289.260 280.834 C 290.121 280.834,293.156 277.019,293.368 275.671 C 293.488 274.906,293.780 273.565,294.017 272.691 C 294.462 271.049,295.371 93.310,294.972 85.998 C 294.389 75.327,290.640 73.198,272.283 73.114 C 265.189 73.081,264.945 73.210,264.945 76.995 C 264.945 78.768,264.738 79.961,264.327 80.547 L 263.709 81.430 204.519 81.430 C 164.478 81.430,145.082 81.297,144.562 81.019 C 143.907 80.668,143.793 80.167,143.793 77.616 C 143.793 72.766,144.513 73.081,133.551 73.135 C 128.370 73.160,123.158 73.343,121.968 73.540 M185.703 102.293 C 185.705 105.128,185.858 108.528,186.043 109.848 L 186.380 112.248 184.030 113.699 C 181.060 115.532,175.110 121.360,170.946 126.514 C 167.449 130.843,167.214 131.323,166.867 134.856 L 166.634 137.239 155.759 137.345 C 147.993 137.421,144.726 137.320,144.332 136.993 C 143.882 136.620,143.800 134.654,143.886 126.361 L 143.992 116.187 148.759 115.949 C 151.380 115.818,154.359 115.508,155.378 115.260 C 156.883 114.893,157.495 114.919,158.642 115.398 C 162.690 117.090,166.472 116.018,168.818 112.514 C 169.801 111.046,170.874 109.559,171.202 109.208 C 171.529 108.858,172.066 108.140,172.393 107.613 C 173.335 106.096,180.494 98.986,181.559 98.510 C 182.089 98.273,182.969 97.819,183.515 97.501 C 185.539 96.322,185.700 96.674,185.703 102.293 M146.177 117.072 C 145.155 117.461,145.115 117.796,145.034 126.689 C 144.966 134.202,145.041 135.451,145.594 136.004 C 146.397 136.807,160.387 136.972,161.171 136.187 C 162.640 134.719,153.733 126.075,148.064 123.465 C 146.174 122.596,145.993 121.093,147.666 120.177 C 149.838 118.989,150.688 118.028,150.147 117.376 C 149.662 116.791,147.375 116.616,146.177 117.072 M160.377 117.212 C 159.070 117.973,161.032 122.741,162.653 122.741 C 163.583 122.741,164.846 120.192,164.846 118.315 C 164.846 116.982,161.984 116.276,160.377 117.212 M263.674 127.190 C 264.259 127.775,264.300 130.459,263.740 131.506 C 263.338 132.257,262.495 132.274,225.616 132.274 L 187.903 132.274 187.272 131.311 C 186.894 130.734,186.692 129.741,186.767 128.829 L 186.892 127.309 224.628 127.107 C 245.382 126.996,262.551 126.862,262.781 126.809 C 263.010 126.756,263.412 126.928,263.674 127.190 M185.732 153.163 C 185.749 156.202,185.959 159.472,186.197 160.428 C 186.618 162.113,185.236 164.449,183.818 164.449 C 182.636 164.449,176.331 170.551,172.326 175.571 C 171.018 177.210,169.545 178.997,169.051 179.543 C 167.616 181.129,167.215 182.160,166.957 184.921 C 166.824 186.347,166.557 187.611,166.363 187.730 C 165.665 188.162,144.857 187.876,144.317 187.427 C 143.655 186.878,143.553 168.421,144.205 167.203 C 144.569 166.523,145.067 166.435,148.542 166.435 C 150.787 166.435,153.496 166.172,154.867 165.820 C 157.032 165.266,157.382 165.266,158.454 165.820 C 159.249 166.231,160.744 166.435,162.970 166.435 C 166.818 166.435,166.637 166.562,169.992 161.532 C 172.339 158.013,172.262 158.108,175.887 154.309 C 180.089 149.906,183.953 147.119,185.303 147.519 C 185.541 147.589,185.713 149.850,185.732 153.163 M145.645 167.925 C 145.220 168.765,145.103 170.980,145.138 177.538 L 145.184 186.060 146.177 186.337 C 147.739 186.773,159.514 186.738,160.681 186.294 L 161.732 185.894 160.147 183.903 C 158.003 181.210,152.101 176.210,149.057 174.508 C 146.082 172.844,145.724 171.658,147.865 170.559 C 150.262 169.328,151.521 167.536,150.315 167.073 C 148.538 166.391,146.205 166.816,145.645 167.925 M160.576 167.086 C 159.982 167.337,159.917 169.738,160.476 170.710 C 160.695 171.090,161.048 171.892,161.261 172.493 C 162.337 175.525,165.601 171.293,164.575 168.196 C 164.189 167.033,162.084 166.449,160.576 167.086 M263.674 178.034 C 264.179 178.539,264.314 180.641,263.910 181.695 C 263.494 182.779,187.685 182.641,187.104 181.555 C 186.542 180.504,186.587 178.864,187.190 178.474 C 188.515 177.617,262.829 177.189,263.674 178.034 M166.739 227.905 L 166.845 238.729 155.560 238.729 C 145.637 238.729,144.247 238.653,144.035 238.101 C 143.546 236.826,143.767 217.862,144.276 217.352 C 144.637 216.992,147.522 216.896,155.696 216.975 L 166.634 217.080 166.739 227.905 M145.462 218.947 C 144.807 219.602,144.793 235.490,145.446 236.923 L 145.907 237.934 154.952 237.934 L 163.998 237.934 164.819 236.781 C 165.986 235.142,166.094 219.896,164.945 219.024 C 163.993 218.301,146.178 218.231,145.462 218.947 M264.160 228.815 C 264.399 229.261,264.539 230.289,264.472 231.099 L 264.350 232.572 225.621 232.572 L 186.892 232.572 186.774 230.754 C 186.588 227.898,184.238 228.061,226.103 228.031 C 263.593 228.004,263.727 228.007,264.160 228.815 " stroke="none" fill="#e4e4e4" fill-rule="evenodd"></path><path id="path3" d="M165.641 115.648 C 165.094 115.870,163.389 115.991,161.850 115.917 C 159.101 115.785,159.060 115.797,159.460 116.644 C 159.768 117.299,160.029 117.419,160.543 117.144 C 161.696 116.527,163.611 116.739,164.449 117.577 C 164.997 118.125,165.243 118.203,165.243 117.829 C 165.243 117.531,165.614 116.816,166.067 116.240 C 166.519 115.665,166.832 115.205,166.762 115.219 C 166.691 115.233,166.187 115.426,165.641 115.648 M148.361 115.967 L 143.992 116.187 143.886 126.361 C 143.800 134.654,143.882 136.620,144.332 136.993 C 144.726 137.320,147.993 137.421,155.759 137.345 L 166.634 137.239 166.863 134.856 C 167.140 131.974,167.105 131.891,166.315 133.551 C 165.033 136.241,163.670 137.105,162.064 136.245 C 161.566 135.979,161.238 135.979,161.073 136.245 C 160.619 136.980,146.348 136.758,145.594 136.004 C 144.919 135.329,144.741 118.615,145.397 117.553 C 145.812 116.882,149.228 116.580,149.919 117.153 C 150.482 117.621,151.424 117.304,153.327 116.009 C 153.856 115.648,153.856 115.611,153.327 115.675 C 152.999 115.715,150.765 115.847,148.361 115.967 M224.628 127.107 L 186.892 127.309 186.767 128.829 C 186.692 129.741,186.894 130.734,187.272 131.311 L 187.903 132.274 225.616 132.274 C 262.495 132.274,263.338 132.257,263.740 131.506 C 264.669 129.770,264.006 126.526,262.781 126.809 C 262.551 126.862,245.382 126.996,224.628 127.107 M294.719 204.965 C 294.564 253.353,294.383 271.529,294.046 272.691 C 293.793 273.565,293.488 274.906,293.368 275.671 C 293.156 277.019,290.121 280.834,289.260 280.834 C 289.054 280.834,288.459 281.165,287.938 281.569 C 286.369 282.786,285.464 282.800,201.589 282.863 C 156.892 282.896,121.180 283.073,121.946 283.257 C 123.459 283.620,190.540 283.616,250.050 283.249 L 287.388 283.019 289.346 281.732 C 291.679 280.199,293.130 278.496,294.170 276.068 C 294.915 274.328,295.485 191.204,295.041 149.156 C 294.981 143.476,294.836 168.590,294.719 204.965 M149.156 166.330 C 145.636 166.429,144.690 166.582,144.290 167.116 C 143.556 168.096,143.581 186.816,144.317 187.427 C 144.943 187.947,165.967 188.129,166.436 187.619 C 166.734 187.295,167.239 183.118,166.981 183.118 C 166.908 183.118,166.497 183.806,166.069 184.646 C 165.067 186.610,163.686 187.561,162.667 186.990 C 162.225 186.743,158.688 186.558,153.951 186.534 C 149.566 186.512,145.745 186.344,145.461 186.160 C 144.705 185.672,144.873 169.475,145.650 167.925 C 146.421 166.385,150.943 166.337,150.943 167.868 C 150.943 168.260,151.174 168.190,151.738 167.627 C 152.175 167.190,152.790 166.832,153.105 166.832 C 153.419 166.832,153.788 166.653,153.923 166.435 C 154.058 166.216,154.023 166.076,153.847 166.122 C 153.670 166.168,151.559 166.262,149.156 166.330 M159.451 167.346 C 159.681 167.956,159.943 168.224,160.034 167.942 C 160.540 166.362,163.879 166.349,164.506 167.925 C 164.814 168.697,165.000 168.843,165.143 168.421 C 165.254 168.093,165.668 167.468,166.064 167.031 C 166.779 166.241,166.759 166.236,162.908 166.236 L 159.032 166.236 159.451 167.346 M194.836 177.937 C 186.390 178.192,185.522 178.599,187.104 181.555 C 187.685 182.641,263.494 182.779,263.910 181.695 C 264.314 180.641,264.179 178.539,263.674 178.034 C 263.179 177.539,210.457 177.464,194.836 177.937 M144.276 217.352 C 143.767 217.862,143.546 236.826,144.035 238.101 C 144.247 238.653,145.637 238.729,155.560 238.729 L 166.845 238.729 166.739 227.905 L 166.634 217.080 155.696 216.975 C 147.522 216.896,144.637 216.992,144.276 217.352 M164.945 219.024 C 166.094 219.896,165.986 235.142,164.819 236.781 L 163.998 237.934 154.952 237.934 L 145.907 237.934 145.446 236.923 C 144.793 235.490,144.807 219.602,145.462 218.947 C 146.178 218.231,163.993 218.301,164.945 219.024 M187.568 228.497 C 186.782 228.876,186.672 229.189,186.774 230.754 L 186.892 232.572 225.621 232.572 L 264.350 232.572 264.472 231.099 C 264.755 227.690,268.638 228.000,226.103 228.031 C 199.475 228.050,188.214 228.186,187.568 228.497 M112.595 257.597 C 112.595 266.991,112.647 270.777,112.711 266.011 C 112.774 261.244,112.774 253.558,112.711 248.930 C 112.647 244.303,112.595 248.203,112.595 257.597 M112.819 275.599 C 112.791 277.224,118.295 282.833,119.897 282.811 C 120.259 282.806,119.948 282.503,119.206 282.137 C 117.469 281.281,114.349 278.162,113.494 276.425 C 113.128 275.682,112.824 275.310,112.819 275.599 M95.432 290.657 C 96.251 290.742,97.592 290.742,98.411 290.657 C 99.230 290.571,98.560 290.501,96.922 290.501 C 95.283 290.501,94.613 290.571,95.432 290.657 M307.950 290.652 C 308.554 290.744,309.447 290.741,309.936 290.647 C 310.425 290.553,309.930 290.478,308.838 290.481 C 307.746 290.484,307.346 290.561,307.950 290.652 M88.136 291.261 C 88.110 291.534,88.114 291.905,88.146 292.085 C 88.177 292.265,88.047 292.317,87.857 292.199 C 87.323 291.869,84.608 292.733,84.608 293.233 C 84.608 293.477,84.493 293.563,84.353 293.422 C 84.212 293.282,84.346 292.860,84.650 292.485 C 85.106 291.924,85.108 291.861,84.660 292.131 C 83.471 292.848,81.430 293.087,81.430 292.510 C 81.430 292.142,81.930 291.943,82.920 291.916 L 84.409 291.875 83.033 291.551 C 81.899 291.284,81.564 291.361,81.124 291.989 C 80.749 292.524,80.117 292.751,78.998 292.751 C 78.122 292.751,77.038 292.947,76.589 293.188 C 75.953 293.528,75.841 293.514,76.081 293.126 C 76.441 292.544,75.711 292.905,74.510 293.904 C 74.090 294.253,73.864 294.335,74.009 294.087 C 74.161 293.825,73.899 293.533,73.382 293.392 C 72.710 293.208,72.622 293.064,73.022 292.806 C 73.446 292.533,73.419 292.413,72.891 292.210 C 71.907 291.833,71.882 291.867,72.311 292.995 C 72.648 293.880,72.610 293.996,72.059 293.785 C 71.593 293.606,71.476 293.705,71.641 294.137 C 71.768 294.467,71.699 294.737,71.487 294.737 C 71.275 294.737,71.102 294.579,71.102 294.385 C 71.102 293.960,67.137 294.036,66.435 294.474 C 66.111 294.676,65.938 294.550,65.938 294.113 C 65.938 293.552,66.234 293.475,67.746 293.646 C 68.739 293.758,69.456 293.753,69.338 293.635 C 69.006 293.302,65.553 292.846,65.748 293.160 C 65.920 293.440,65.032 294.338,63.990 294.936 C 63.616 295.151,63.526 295.106,63.716 294.798 C 64.073 294.220,63.735 294.216,62.674 294.783 C 61.979 295.155,61.885 295.125,62.087 294.597 C 62.220 294.251,62.158 293.862,61.949 293.733 C 61.740 293.604,61.569 293.788,61.569 294.141 C 61.569 294.495,61.392 294.675,61.176 294.541 C 60.960 294.408,60.875 294.537,60.988 294.830 C 61.276 295.581,59.628 295.633,58.890 294.896 C 58.129 294.134,57.713 294.516,58.402 295.345 C 58.688 295.691,58.759 295.925,58.558 295.867 C 58.357 295.808,57.790 295.983,57.299 296.255 C 56.579 296.655,56.404 296.652,56.399 296.240 C 56.395 295.881,56.279 295.907,56.008 296.326 C 55.688 296.822,55.617 296.788,55.585 296.127 C 55.556 295.501,55.464 295.564,55.148 296.427 C 54.928 297.030,54.585 297.421,54.385 297.298 C 54.185 297.174,54.019 297.307,54.016 297.593 C 54.011 297.971,53.904 297.950,53.625 297.517 C 53.296 297.008,53.239 297.023,53.233 297.617 C 53.227 298.398,52.795 298.515,52.181 297.901 C 51.899 297.619,51.771 297.681,51.771 298.100 C 51.771 298.435,51.920 298.709,52.102 298.709 C 52.851 298.709,52.365 299.458,51.539 299.575 C 50.943 299.660,50.684 299.933,50.762 300.397 C 50.836 300.836,50.616 301.104,50.166 301.124 C 49.715 301.144,49.644 301.231,49.971 301.362 C 50.359 301.518,50.310 301.709,49.773 302.126 C 49.185 302.584,49.174 302.643,49.712 302.457 C 50.072 302.332,50.483 302.419,50.626 302.650 C 50.777 302.895,50.655 302.981,50.333 302.857 C 49.393 302.497,48.666 303.741,49.211 304.776 C 49.467 305.262,49.599 305.377,49.504 305.031 C 49.404 304.668,49.573 304.403,49.906 304.403 C 50.284 304.403,50.385 304.618,50.200 305.031 C 50.046 305.377,49.904 306.072,49.885 306.574 C 49.860 307.242,49.663 307.440,49.156 307.307 C 48.774 307.207,48.361 307.287,48.239 307.485 C 48.117 307.683,48.574 307.845,49.255 307.845 C 49.980 307.845,50.392 308.010,50.248 308.242 C 50.113 308.461,50.203 308.640,50.447 308.640 C 50.691 308.640,50.781 308.818,50.645 309.037 C 50.510 309.255,50.634 309.437,50.920 309.440 C 51.345 309.445,51.346 309.506,50.925 309.773 C 50.513 310.034,50.533 310.203,51.024 310.610 C 51.440 310.956,51.639 310.976,51.639 310.674 C 51.639 310.429,51.926 310.228,52.277 310.228 C 52.687 310.228,52.832 310.446,52.682 310.837 C 52.526 311.241,52.779 311.571,53.434 311.820 C 53.976 312.026,54.419 312.412,54.419 312.678 C 54.419 312.943,54.660 312.832,54.953 312.430 C 55.455 311.744,55.486 311.757,55.450 312.648 C 55.411 313.635,57.347 314.132,57.879 313.272 C 58.005 313.068,58.444 313.327,58.855 313.849 C 59.266 314.370,59.577 314.618,59.546 314.399 C 59.416 313.494,59.626 313.449,60.392 314.215 C 60.837 314.660,61.347 314.934,61.526 314.823 C 61.705 314.712,61.763 315.087,61.654 315.655 C 61.508 316.418,61.601 316.637,62.009 316.495 C 62.313 316.389,62.504 315.984,62.433 315.595 C 62.333 315.047,62.468 314.955,63.029 315.189 C 63.428 315.355,64.201 315.527,64.747 315.571 C 65.293 315.616,66.187 315.891,66.733 316.183 C 67.672 316.685,67.694 316.675,67.130 315.988 C 66.573 315.310,66.592 315.293,67.411 315.729 C 67.893 315.986,69.055 316.175,69.993 316.149 C 72.843 316.070,76.045 316.600,76.385 317.207 C 76.560 317.520,76.917 317.773,77.180 317.769 C 77.504 317.765,77.484 317.654,77.117 317.422 C 76.711 317.164,76.695 317.008,77.053 316.787 C 77.314 316.626,77.720 316.687,77.955 316.922 C 78.261 317.229,78.531 317.156,78.901 316.669 C 79.186 316.295,79.424 316.187,79.431 316.431 C 79.446 316.943,82.948 318.376,83.308 318.016 C 83.440 317.884,83.272 317.776,82.935 317.776 C 82.598 317.776,82.099 317.507,81.827 317.180 C 81.179 316.399,81.609 316.423,82.852 317.237 C 83.691 317.787,84.507 317.848,88.002 317.622 C 90.685 317.448,92.155 317.494,92.155 317.751 C 92.155 317.969,92.422 318.045,92.748 317.920 C 93.075 317.795,93.240 317.488,93.116 317.237 C 92.992 316.987,93.127 317.066,93.416 317.413 C 93.706 317.760,94.166 317.969,94.439 317.877 C 94.712 317.785,94.935 317.897,94.935 318.127 C 94.935 318.357,95.210 318.440,95.546 318.311 C 95.882 318.182,96.482 318.371,96.879 318.730 C 97.525 319.315,97.656 319.320,98.105 318.779 C 98.751 318.001,101.046 317.994,101.688 318.769 C 102.090 319.253,103.373 319.364,108.538 319.364 C 114.142 319.364,114.835 319.294,114.399 318.769 C 113.643 317.857,115.089 317.991,116.715 318.982 C 117.443 319.426,117.905 319.573,117.742 319.310 C 117.527 318.962,117.653 318.926,118.207 319.180 C 118.625 319.371,119.637 319.509,120.456 319.486 C 121.274 319.463,121.846 319.603,121.726 319.797 C 121.606 319.991,121.774 320.048,122.100 319.922 C 122.426 319.797,123.016 319.883,123.412 320.114 C 124.035 320.476,123.971 320.537,122.939 320.572 C 121.911 320.606,121.856 320.659,122.542 320.953 C 122.979 321.141,131.917 321.284,142.403 321.270 C 152.890 321.257,160.844 321.114,160.079 320.953 C 158.967 320.719,158.887 320.649,159.682 320.602 C 160.400 320.560,160.526 320.449,160.136 320.202 C 159.840 320.015,159.751 319.778,159.938 319.677 C 160.425 319.413,162.118 320.371,161.774 320.716 C 161.616 320.874,161.989 320.812,162.604 320.578 C 163.218 320.344,163.905 320.267,164.129 320.406 C 164.354 320.544,164.694 320.412,164.884 320.110 C 165.155 319.683,165.232 319.722,165.237 320.290 C 165.242 320.880,165.454 320.970,166.368 320.769 C 166.987 320.633,168.283 320.700,169.248 320.918 C 170.355 321.168,171.052 321.175,171.135 320.935 C 171.315 320.420,233.451 320.420,233.631 320.935 C 233.715 321.175,234.411 321.168,235.518 320.918 C 236.483 320.700,237.779 320.633,238.398 320.769 C 239.312 320.970,239.524 320.880,239.529 320.290 C 239.534 319.722,239.611 319.683,239.882 320.110 C 240.073 320.412,240.413 320.544,240.637 320.406 C 240.862 320.267,241.548 320.344,242.163 320.578 C 242.777 320.812,243.151 320.874,242.993 320.716 C 242.649 320.371,244.342 319.413,244.829 319.677 C 245.016 319.778,244.927 320.015,244.630 320.202 C 244.241 320.449,244.366 320.560,245.084 320.602 C 245.879 320.649,245.800 320.719,244.687 320.953 C 243.923 321.114,251.877 321.257,262.363 321.270 C 272.850 321.284,281.787 321.141,282.224 320.953 C 282.910 320.659,282.856 320.606,281.827 320.572 C 280.795 320.537,280.732 320.476,281.355 320.114 C 281.750 319.883,282.341 319.797,282.666 319.922 C 283.032 320.063,283.156 319.983,282.990 319.715 C 282.805 319.415,283.101 319.363,283.937 319.547 C 284.727 319.720,285.544 319.601,286.271 319.208 C 286.885 318.874,287.135 318.595,286.826 318.586 C 286.516 318.577,286.370 318.463,286.501 318.332 C 287.060 317.773,287.620 318.648,287.110 319.283 C 286.757 319.723,287.048 319.649,288.031 319.049 C 289.750 318.001,291.144 317.833,290.367 318.769 C 289.931 319.294,290.624 319.364,296.228 319.364 C 301.393 319.364,302.677 319.253,303.078 318.769 C 303.721 317.994,306.016 318.001,306.662 318.779 C 307.111 319.320,307.242 319.315,307.887 318.730 C 308.285 318.371,308.885 318.182,309.221 318.311 C 309.556 318.440,309.831 318.379,309.831 318.177 C 309.831 317.975,310.457 317.858,311.221 317.919 C 311.986 317.979,312.612 317.876,312.612 317.691 C 312.612 317.505,314.481 317.474,316.765 317.622 C 320.260 317.848,321.076 317.787,321.915 317.237 C 323.157 316.423,323.588 316.399,322.939 317.180 C 322.667 317.507,322.169 317.776,321.832 317.776 C 321.494 317.776,321.326 317.884,321.459 318.016 C 321.818 318.376,325.321 316.943,325.335 316.431 C 325.342 316.187,325.581 316.295,325.866 316.669 C 326.236 317.156,326.505 317.229,326.811 316.922 C 327.047 316.687,327.453 316.626,327.714 316.787 C 328.072 317.008,328.056 317.164,327.649 317.422 C 327.283 317.654,327.263 317.765,327.587 317.769 C 327.849 317.773,328.207 317.520,328.382 317.207 C 328.722 316.600,331.924 316.070,334.774 316.149 C 335.711 316.175,336.873 315.986,337.355 315.729 C 338.175 315.293,338.193 315.310,337.637 315.988 C 337.073 316.675,337.095 316.685,338.034 316.183 C 338.580 315.891,339.474 315.616,340.020 315.571 C 340.566 315.527,341.339 315.355,341.738 315.189 C 342.299 314.955,342.434 315.047,342.334 315.595 C 342.263 315.984,342.453 316.389,342.757 316.495 C 343.166 316.637,343.259 316.418,343.113 315.655 C 343.004 315.087,343.062 314.712,343.241 314.823 C 343.419 314.934,343.930 314.660,344.375 314.215 C 345.141 313.449,345.345 313.493,345.225 314.399 C 345.196 314.618,345.532 314.374,345.972 313.859 C 346.413 313.343,346.773 313.099,346.773 313.316 C 346.773 313.533,347.354 313.678,348.064 313.639 C 349.146 313.579,349.348 313.416,349.317 312.633 C 349.283 311.800,349.331 311.771,349.766 312.366 C 350.193 312.950,350.283 312.957,350.487 312.425 C 350.615 312.091,351.038 311.815,351.427 311.811 C 351.845 311.808,351.963 311.686,351.716 311.513 C 351.441 311.322,351.533 310.993,351.983 310.557 C 352.590 309.970,352.697 309.964,352.903 310.502 C 353.096 311.004,353.246 311.022,353.747 310.606 C 354.235 310.201,354.254 310.034,353.842 309.773 C 353.421 309.506,353.422 309.445,353.847 309.440 C 354.133 309.437,354.256 309.255,354.121 309.037 C 353.986 308.818,354.076 308.640,354.320 308.640 C 354.564 308.640,354.653 308.461,354.518 308.242 C 354.383 308.024,354.619 307.845,355.042 307.845 C 355.994 307.845,356.929 306.840,356.325 306.467 C 356.096 306.325,355.909 306.488,355.909 306.829 C 355.909 307.811,354.919 307.547,354.881 306.554 C 354.862 306.063,354.713 305.357,354.549 304.985 C 354.301 304.426,354.427 304.342,355.278 304.496 C 355.843 304.599,356.306 304.528,356.306 304.339 C 356.306 303.692,354.770 302.601,354.283 302.902 C 353.975 303.093,353.902 303.035,354.083 302.743 C 354.466 302.124,354.939 302.166,355.656 302.883 C 355.986 303.212,356.354 303.322,356.474 303.128 C 356.594 302.933,356.147 302.547,355.480 302.271 C 354.598 301.905,354.409 301.678,354.789 301.436 C 355.179 301.190,355.124 301.103,354.575 301.098 C 354.090 301.094,353.914 300.892,354.062 300.507 C 354.186 300.185,354.031 299.779,353.719 299.604 C 353.243 299.337,353.044 298.827,352.760 297.144 C 352.744 297.047,352.468 297.315,352.148 297.739 C 351.572 298.500,351.564 298.500,351.546 297.716 C 351.530 297.056,351.462 297.023,351.142 297.517 C 350.862 297.950,350.755 297.971,350.751 297.593 C 350.748 297.307,350.581 297.174,350.381 297.298 C 350.182 297.421,349.838 297.030,349.618 296.427 C 349.303 295.564,349.211 295.501,349.181 296.127 C 349.150 296.788,349.079 296.822,348.759 296.326 C 348.488 295.907,348.372 295.881,348.368 296.240 C 348.363 296.652,348.188 296.655,347.468 296.255 C 346.976 295.983,346.400 295.811,346.188 295.873 C 345.976 295.936,346.126 295.629,346.522 295.191 C 347.223 294.417,347.220 294.401,346.412 294.612 C 345.955 294.732,345.581 294.985,345.581 295.176 C 345.581 295.366,345.130 295.485,344.579 295.439 C 343.927 295.386,343.648 295.171,343.780 294.827 C 343.892 294.536,343.806 294.408,343.590 294.541 C 343.374 294.675,343.198 294.495,343.198 294.141 C 343.198 293.788,343.027 293.604,342.818 293.733 C 342.609 293.862,342.547 294.251,342.679 294.597 C 342.882 295.124,342.787 295.155,342.098 294.786 C 341.523 294.478,341.233 294.473,341.135 294.769 C 341.054 295.011,340.532 294.828,339.907 294.336 C 339.310 293.866,338.904 293.347,339.006 293.182 C 339.209 292.853,335.775 293.288,335.428 293.635 C 335.310 293.753,336.027 293.758,337.021 293.646 C 338.524 293.476,338.828 293.553,338.828 294.103 C 338.828 294.605,338.660 294.678,338.133 294.407 C 337.219 293.936,333.664 293.911,333.664 294.376 C 333.664 294.574,333.491 294.737,333.280 294.737 C 333.068 294.737,332.999 294.467,333.125 294.137 C 333.291 293.705,333.174 293.606,332.708 293.785 C 332.151 293.998,332.118 293.882,332.473 292.949 C 332.825 292.023,332.792 291.901,332.249 292.110 C 331.899 292.244,331.494 292.356,331.348 292.360 C 331.202 292.363,331.351 292.542,331.678 292.757 C 332.176 293.083,332.127 293.188,331.385 293.392 C 330.872 293.532,330.605 293.826,330.754 294.087 C 330.896 294.335,330.569 294.136,330.029 293.644 C 328.992 292.703,328.267 292.449,328.724 293.188 C 328.920 293.505,328.771 293.505,328.177 293.188 C 327.728 292.947,326.644 292.751,325.769 292.751 C 324.707 292.751,324.003 292.517,323.657 292.049 C 323.258 291.509,322.817 291.405,321.748 291.599 L 320.357 291.852 321.847 291.904 C 322.831 291.939,323.337 292.144,323.337 292.510 C 323.337 293.087,321.296 292.848,320.106 292.131 C 319.659 291.861,319.660 291.924,320.116 292.485 C 320.420 292.860,320.554 293.282,320.414 293.422 C 320.274 293.563,320.159 293.477,320.159 293.233 C 320.159 292.733,317.444 291.869,316.909 292.199 C 316.719 292.317,316.590 292.265,316.621 292.085 C 316.780 291.171,316.501 290.765,315.714 290.765 C 314.867 290.765,314.864 290.780,315.609 291.325 C 316.328 291.851,316.284 291.902,314.886 292.164 C 313.959 292.338,313.193 292.274,312.856 291.994 C 312.559 291.747,311.995 291.668,311.604 291.818 C 311.074 292.022,310.976 291.956,311.221 291.559 C 311.465 291.165,311.370 291.096,310.857 291.293 C 310.475 291.439,309.106 291.559,307.813 291.559 C 305.727 291.559,305.462 291.649,305.462 292.354 C 305.462 292.790,305.233 293.148,304.954 293.148 C 304.675 293.148,304.141 293.505,303.766 293.942 C 303.392 294.379,302.816 294.737,302.487 294.737 C 302.157 294.737,301.887 294.908,301.887 295.118 C 301.887 295.328,301.127 295.720,300.199 295.989 C 299.270 296.259,298.071 296.757,297.535 297.098 C 296.010 298.064,111.482 298.040,110.007 297.073 C 109.467 296.719,108.449 296.303,107.745 296.149 C 107.040 295.994,106.365 295.707,106.244 295.511 C 106.123 295.316,105.451 294.880,104.750 294.543 C 104.049 294.206,102.871 293.397,102.131 292.745 C 100.884 291.645,100.561 291.559,97.695 291.559 C 95.994 291.559,94.291 291.439,93.910 291.293 C 93.440 291.113,93.308 291.175,93.501 291.487 C 93.687 291.788,93.571 291.865,93.164 291.709 C 92.822 291.578,92.278 291.689,91.956 291.957 C 91.573 292.275,90.852 292.347,89.880 292.164 C 88.483 291.902,88.438 291.851,89.157 291.325 C 89.902 290.780,89.899 290.765,89.053 290.765 C 88.574 290.765,88.162 290.988,88.136 291.261 M88.779 316.981 C 88.644 317.200,87.907 317.378,87.143 317.378 C 86.317 317.378,85.852 317.217,85.998 316.981 C 86.133 316.763,86.869 316.584,87.634 316.584 C 88.459 316.584,88.924 316.745,88.779 316.981 M318.769 316.981 C 318.914 317.217,318.450 317.378,317.624 317.378 C 316.859 317.378,316.123 317.200,315.988 316.981 C 315.842 316.745,316.307 316.584,317.133 316.584 C 317.898 316.584,318.634 316.763,318.769 316.981 M68.421 317.255 C 68.803 317.355,69.429 317.355,69.811 317.255 C 70.194 317.155,69.881 317.073,69.116 317.073 C 68.352 317.073,68.039 317.155,68.421 317.255 M82.726 318.855 C 83.330 318.946,84.224 318.944,84.713 318.850 C 85.201 318.755,84.707 318.681,83.615 318.684 C 82.522 318.687,82.123 318.764,82.726 318.855 M320.264 318.855 C 320.867 318.946,321.761 318.944,322.250 318.850 C 322.738 318.755,322.244 318.681,321.152 318.684 C 320.060 318.687,319.660 318.764,320.264 318.855 M118.371 320.173 C 118.371 320.714,118.963 320.927,119.516 320.585 C 119.889 320.355,119.803 320.210,119.199 320.053 C 118.744 319.933,118.371 319.988,118.371 320.173 M285.431 320.139 C 284.758 320.384,284.745 320.448,285.319 320.668 C 285.679 320.806,286.086 320.736,286.224 320.512 C 286.578 319.939,286.319 319.817,285.431 320.139 M105.561 320.455 C 107.582 320.527,110.889 320.527,112.910 320.455 C 114.930 320.383,113.277 320.324,109.235 320.324 C 105.194 320.324,103.540 320.383,105.561 320.455 M291.857 320.455 C 293.878 320.527,297.185 320.527,299.206 320.455 C 301.226 320.383,299.573 320.324,295.531 320.324 C 291.490 320.324,289.836 320.383,291.857 320.455 M167.135 322.029 C 167.629 322.124,168.344 322.120,168.724 322.021 C 169.103 321.921,168.699 321.844,167.825 321.848 C 166.951 321.852,166.641 321.934,167.135 322.029 M236.251 322.029 C 236.745 322.124,237.460 322.120,237.840 322.021 C 238.220 321.921,237.815 321.844,236.941 321.848 C 236.068 321.852,235.757 321.934,236.251 322.029 " stroke="none" fill="#a4a4a4" fill-rule="evenodd"></path><path id="path4" d="M200.000 15.734 C 197.030 16.196,193.506 17.414,192.651 18.273 C 192.542 18.383,191.725 18.966,190.836 19.569 C 188.845 20.918,187.156 23.039,188.072 23.039 C 188.406 23.039,188.679 22.790,188.679 22.486 C 188.679 22.182,189.109 21.825,189.635 21.693 C 190.160 21.561,191.516 20.844,192.646 20.100 C 193.777 19.355,195.358 18.623,196.159 18.473 C 196.961 18.324,197.863 17.997,198.164 17.748 C 200.665 15.681,212.672 17.759,216.614 20.941 C 217.817 21.911,218.471 22.091,218.471 21.450 C 218.471 20.610,214.373 17.478,213.275 17.478 C 212.953 17.478,212.286 17.195,211.793 16.850 C 211.300 16.505,209.696 16.057,208.229 15.855 C 206.762 15.654,205.114 15.418,204.568 15.333 C 204.022 15.247,201.966 15.428,200.000 15.734 M218.868 22.642 C 218.868 22.860,219.136 23.039,219.464 23.039 C 219.791 23.039,220.060 22.860,220.060 22.642 C 220.060 22.423,219.791 22.244,219.464 22.244 C 219.136 22.244,218.868 22.423,218.868 22.642 M160.508 39.278 C 158.369 39.664,158.600 40.371,160.959 40.655 C 169.072 41.629,184.238 40.539,178.799 39.373 C 176.646 38.911,162.931 38.840,160.508 39.278 M228.103 39.457 C 225.669 40.691,228.305 41.003,239.789 40.843 C 248.907 40.716,250.058 40.565,249.110 39.616 C 248.440 38.944,229.399 38.801,228.103 39.457 M156.008 41.187 C 155.626 41.287,155.313 41.554,155.313 41.780 C 155.313 42.005,155.596 42.082,155.941 41.949 C 156.287 41.817,157.102 41.708,157.752 41.708 C 158.439 41.708,158.832 41.542,158.689 41.311 C 158.441 40.909,157.279 40.855,156.008 41.187 M250.076 41.268 C 249.815 41.691,252.459 42.060,253.066 41.685 C 253.299 41.541,252.917 41.308,252.217 41.168 C 250.553 40.836,250.337 40.846,250.076 41.268 M215.762 44.047 C 215.495 44.212,215.166 45.528,215.031 46.972 C 214.790 49.551,214.766 49.596,213.644 49.564 C 212.266 49.525,212.102 49.664,211.960 51.000 C 211.832 52.197,211.321 52.902,211.321 51.880 C 211.321 51.503,211.142 51.305,210.924 51.440 C 210.705 51.575,210.526 52.211,210.526 52.854 L 210.526 54.022 205.128 54.022 C 200.476 54.022,199.639 53.925,199.071 53.318 C 198.708 52.931,198.545 52.788,198.709 53.001 C 199.224 53.668,199.036 54.022,198.166 54.022 C 197.541 54.022,197.375 53.832,197.519 53.280 C 197.626 52.872,197.513 52.543,197.268 52.548 C 195.976 52.577,195.412 52.389,195.647 52.009 C 195.791 51.776,195.534 51.487,195.075 51.367 C 194.332 51.173,194.079 50.787,194.178 49.997 C 194.195 49.859,193.903 49.770,193.530 49.798 C 193.037 49.837,192.854 49.551,192.866 48.758 C 192.878 47.886,192.738 47.711,192.171 47.891 C 191.551 48.088,191.460 47.856,191.460 46.081 C 191.460 44.672,191.322 44.130,191.012 44.321 C 190.286 44.770,190.852 49.036,191.818 50.392 C 192.276 51.036,192.651 51.752,192.651 51.984 C 192.651 52.215,193.009 52.596,193.446 52.830 C 193.883 53.064,194.240 53.475,194.240 53.743 C 194.240 54.262,194.404 54.367,198.049 56.187 C 203.965 59.140,213.296 56.346,215.558 50.943 C 215.855 50.233,216.274 49.652,216.490 49.652 C 216.956 49.652,217.027 44.228,216.565 43.942 C 216.391 43.835,216.029 43.882,215.762 44.047 M213.704 50.036 C 213.704 50.246,213.302 50.630,212.810 50.888 C 211.921 51.354,211.921 51.352,212.673 50.505 C 213.514 49.558,213.704 49.471,213.704 50.036 M120.076 61.991 C 113.142 62.893,104.866 69.988,104.866 75.029 C 104.866 76.318,105.551 76.358,105.991 75.094 C 106.618 73.297,111.884 68.239,114.399 67.019 C 118.410 65.074,121.012 64.747,132.483 64.747 C 143.972 64.747,144.598 64.610,143.396 62.363 C 142.934 61.501,125.930 61.229,120.076 61.991 M265.639 62.255 C 263.675 64.426,265.009 64.747,275.993 64.747 C 290.338 64.747,296.976 67.048,300.109 73.107 C 300.443 73.752,300.890 74.280,301.103 74.280 C 301.315 74.280,301.490 74.447,301.490 74.651 C 301.490 75.798,302.345 77.208,302.703 76.650 C 303.632 75.203,300.883 69.671,297.859 66.901 C 293.036 62.483,290.783 61.911,277.258 61.678 C 266.840 61.498,266.300 61.525,265.639 62.255 M122.542 71.907 C 120.205 72.269,117.920 73.189,117.199 74.058 C 116.916 74.399,116.501 74.677,116.276 74.677 C 115.652 74.677,112.937 77.764,112.498 78.973 C 110.667 84.006,110.756 77.393,111.151 178.947 C 111.412 246.237,111.647 274.046,111.964 275.429 C 112.688 278.581,116.695 282.796,119.876 283.750 C 122.596 284.566,284.090 284.576,286.585 283.761 C 290.693 282.418,292.811 280.629,294.823 276.801 L 295.730 275.074 295.985 248.659 C 296.439 201.663,296.413 84.626,295.948 82.252 C 295.715 81.066,295.279 79.814,294.979 79.472 C 294.679 79.129,294.312 78.450,294.164 77.965 C 293.748 76.598,290.106 73.648,287.698 72.726 C 285.352 71.828,266.274 71.445,264.971 72.270 C 264.584 72.515,264.327 73.696,264.173 75.938 C 264.048 77.757,263.802 79.469,263.627 79.742 C 263.376 80.135,251.137 80.238,204.621 80.238 C 158.286 80.238,145.793 80.134,145.272 79.742 C 144.801 79.387,144.539 78.339,144.354 76.068 C 143.961 71.249,144.531 71.491,133.702 71.549 C 128.657 71.576,123.635 71.737,122.542 71.907 M143.382 73.857 C 143.608 74.279,143.793 75.971,143.793 77.616 C 143.793 80.167,143.907 80.668,144.562 81.019 C 145.082 81.297,164.478 81.430,204.519 81.430 L 263.709 81.430 264.327 80.547 C 264.738 79.961,264.945 78.768,264.945 76.995 C 264.945 73.210,265.189 73.081,272.283 73.114 C 288.232 73.187,291.977 74.517,294.141 80.881 C 295.362 84.472,295.396 272.676,294.177 275.869 C 293.205 278.414,291.799 280.120,289.346 281.732 L 287.388 283.019 250.050 283.249 C 173.232 283.723,123.529 283.653,121.060 283.069 C 118.405 282.441,115.854 280.538,113.904 277.731 L 112.612 275.869 112.612 178.550 L 112.612 81.231 113.569 79.643 C 117.022 73.909,119.183 73.206,133.551 73.135 C 142.483 73.091,142.992 73.128,143.382 73.857 M183.515 97.501 C 182.969 97.819,182.089 98.273,181.559 98.510 C 180.494 98.986,173.335 106.096,172.393 107.613 C 172.066 108.140,171.529 108.859,171.202 109.210 C 170.874 109.562,169.742 111.131,168.686 112.699 C 167.630 114.266,166.523 115.750,166.226 115.997 C 165.929 116.243,165.214 117.861,164.638 119.593 C 163.725 122.332,163.468 122.741,162.658 122.741 C 161.616 122.741,159.682 119.290,159.682 117.432 C 159.682 113.899,154.022 114.503,149.950 118.470 C 149.295 119.109,148.267 119.889,147.666 120.203 C 145.988 121.082,146.172 122.595,148.064 123.465 C 152.161 125.351,159.585 131.766,161.107 134.736 C 162.714 137.871,164.528 137.209,166.748 132.678 C 169.170 127.734,179.280 116.630,184.030 113.699 L 186.380 112.248 186.043 109.848 C 185.858 108.528,185.705 105.128,185.703 102.293 C 185.700 96.674,185.539 96.322,183.515 97.501 M184.544 98.904 C 184.802 99.162,184.807 100.420,184.559 102.550 C 184.292 104.845,184.316 106.462,184.642 108.040 C 185.360 111.512,185.310 111.634,182.291 113.803 C 177.355 117.349,170.600 124.776,166.311 131.370 L 163.605 135.530 162.736 134.796 C 162.258 134.392,161.713 133.818,161.524 133.520 C 160.593 132.050,154.344 126.449,151.502 124.538 C 147.585 121.903,146.976 121.268,148.019 120.900 C 148.426 120.756,149.652 119.985,150.745 119.187 C 156.119 115.258,157.348 115.051,158.531 117.875 C 158.965 118.913,159.489 120.030,159.694 120.357 C 159.899 120.685,160.330 121.535,160.650 122.247 C 162.009 125.263,163.561 124.850,165.059 121.073 C 168.626 112.076,182.234 96.594,184.544 98.904 M183.543 147.992 C 181.713 148.784,179.107 150.935,175.887 154.309 C 172.263 158.107,172.340 158.013,169.989 161.532 C 168.845 163.245,167.340 165.362,166.647 166.236 C 165.953 167.110,164.973 169.121,164.470 170.705 C 163.430 173.979,162.066 174.737,161.253 172.493 C 161.036 171.892,160.702 171.043,160.512 170.606 C 160.322 170.169,159.961 169.051,159.710 168.122 C 158.985 165.445,156.288 164.525,154.121 166.214 C 153.793 166.470,153.034 166.888,152.433 167.144 C 151.832 167.400,151.341 167.792,151.341 168.015 C 151.341 168.238,151.067 168.421,150.732 168.421 C 150.398 168.421,150.018 168.697,149.889 169.034 C 149.760 169.371,148.961 170.000,148.114 170.432 C 145.707 171.660,145.966 172.779,149.057 174.508 C 153.169 176.808,163.010 185.889,161.404 185.901 C 161.222 185.903,161.596 186.249,162.237 186.672 C 163.850 187.735,165.004 186.872,166.799 183.260 C 167.543 181.762,168.556 180.089,169.050 179.543 C 169.544 178.997,171.018 177.210,172.326 175.571 C 176.331 170.551,182.636 164.449,183.818 164.449 C 185.236 164.449,186.618 162.113,186.197 160.428 C 185.959 159.472,185.749 156.202,185.732 153.163 C 185.698 147.182,185.653 147.077,183.543 147.992 M184.856 149.355 C 184.319 151.520,184.332 157.169,184.880 159.305 C 185.614 162.173,185.621 162.160,181.972 164.639 C 177.804 167.471,169.047 177.233,166.108 182.324 C 163.560 186.735,164.359 186.835,158.799 181.413 C 154.380 177.103,150.392 173.968,148.609 173.402 C 147.669 173.103,147.505 172.254,148.262 171.596 C 151.046 169.175,155.747 166.435,157.115 166.435 C 157.396 166.435,158.019 167.284,158.501 168.322 C 162.151 176.188,162.978 176.600,165.072 171.599 C 166.126 169.081,168.010 165.954,171.520 160.893 C 173.877 157.495,179.249 151.863,181.927 149.984 C 183.118 149.148,185.008 148.742,184.856 149.355 M103.674 293.942 C 104.972 294.957,105.484 294.957,104.469 293.942 C 104.032 293.505,103.451 293.152,103.178 293.157 C 102.905 293.162,103.128 293.515,103.674 293.942 M106.058 295.333 C 106.330 295.660,106.731 295.929,106.949 295.929 C 107.171 295.929,107.128 295.665,106.852 295.333 C 106.580 295.005,106.179 294.737,105.960 294.737 C 105.739 294.737,105.782 295.000,106.058 295.333 M300.865 295.324 C 300.444 295.643,300.278 295.906,300.497 295.910 C 301.087 295.920,302.096 295.210,301.846 294.961 C 301.727 294.842,301.286 295.006,300.865 295.324 M109.808 296.934 C 110.232 297.255,110.947 297.510,111.397 297.502 C 112.000 297.490,111.864 297.334,110.878 296.906 C 109.194 296.175,108.817 296.185,109.808 296.934 M297.299 296.684 C 297.091 296.882,296.564 297.129,296.127 297.234 C 295.352 297.421,295.353 297.426,296.150 297.471 C 296.600 297.497,297.315 297.255,297.739 296.934 C 298.163 296.613,298.323 296.345,298.093 296.338 C 297.864 296.331,297.506 296.487,297.299 296.684 M157.200 297.815 C 181.723 297.872,221.852 297.872,246.375 297.815 C 270.899 297.759,250.834 297.713,201.787 297.713 C 152.741 297.713,132.676 297.759,157.200 297.815 M291.857 297.798 C 292.349 297.892,293.153 297.892,293.644 297.798 C 294.136 297.703,293.734 297.626,292.751 297.626 C 291.768 297.626,291.365 297.703,291.857 297.798 " stroke="none" fill="#b99a86" fill-rule="evenodd"></path></g></svg>