<?xml version="1.0" standalone="no"?>
<!DOCTYPE svg PUBLIC "-//W3C//DTD SVG 20010904//EN"
 "http://www.w3.org/TR/2001/REC-SVG-20010904/DTD/svg10.dtd">
<svg version="1.0" xmlns="http://www.w3.org/2000/svg"
 width="600.000000pt" height="594.000000pt" viewBox="0 0 600.000000 594.000000"
 preserveAspectRatio="xMidYMid meet">

<g transform="translate(0.000000,594.000000) scale(0.100000,-0.100000)"
fill="#000000" stroke="none">
<path d="M40 500 l0 -330 65 0 65 0 1 223 1 222 55 -223 55 -222 69 0 c67 0
69 1 76 27 3 16 30 120 59 233 l52 205 1 -232 1 -233 65 0 65 0 0 330 0 330
-104 0 -103 0 -54 -209 c-30 -116 -57 -204 -60 -198 -3 7 -23 77 -43 157 -21
80 -44 169 -52 198 l-15 52 -100 0 -99 0 0 -330z"/>
<path d="M790 500 l0 -330 250 0 250 0 0 60 0 60 -180 0 -180 0 0 80 0 80 160
0 160 0 0 60 0 60 -160 0 -160 0 0 70 0 70 170 0 170 0 0 60 0 60 -240 0 -240
0 0 -330z"/>
<path d="M2110 806 c-5 -14 -61 -159 -125 -324 -63 -164 -115 -301 -115 -305
0 -4 33 -7 74 -7 l74 0 23 68 24 67 129 0 128 0 25 -67 25 -68 78 0 77 0 -130
330 -130 330 -74 0 c-69 0 -74 -2 -83 -24z m124 -267 c20 -55 36 -102 36 -105
0 -2 -36 -4 -80 -4 l-79 0 37 105 c20 58 40 105 43 105 4 0 23 -45 43 -101z"/>
<path d="M2580 500 l0 -330 70 0 70 0 0 140 0 140 125 0 125 0 0 -140 0 -140
70 0 70 0 0 330 0 330 -70 0 -70 0 0 -130 0 -130 -125 0 -125 0 0 130 0 130
-70 0 -70 0 0 -330z"/>
<path d="M3230 500 l0 -330 70 0 70 0 0 330 0 330 -70 0 -70 0 0 -330z"/>
<path d="M3480 500 l0 -330 70 0 70 0 0 136 0 137 40 -6 c61 -8 81 -26 166
-152 l78 -115 83 0 c84 0 84 0 72 23 -39 73 -141 217 -170 240 -26 21 -30 27
-15 27 32 0 96 43 119 80 28 46 30 139 3 193 -40 81 -98 97 -347 97 l-169 0 0
-330z m369 186 c28 -26 29 -86 0 -112 -17 -15 -40 -19 -125 -22 l-104 -4 0 82
0 82 104 -4 c85 -2 108 -6 125 -22z"/>
<path d="M4130 500 l0 -330 70 0 70 0 0 98 0 98 49 48 50 49 26 -44 c14 -24
53 -90 86 -147 l60 -102 161 2 161 3 22 65 22 65 129 3 130 3 24 -71 24 -70
78 0 77 0 -24 63 c-13 34 -71 181 -128 327 l-105 265 -75 3 -74 3 -123 -321
c-117 -304 -125 -320 -139 -301 -9 12 -65 98 -125 192 l-109 170 121 122 c67
67 122 126 122 130 0 4 -42 7 -92 7 l-93 0 -125 -137 -125 -138 -3 138 -3 137
-69 0 -70 0 0 -330z m948 38 l39 -108 -78 0 c-44 0 -79 3 -79 8 0 11 72 213
75 210 2 -2 21 -51 43 -110z"/>
<path d="M5430 500 l0 -330 65 0 65 0 2 198 3 197 120 -197 120 -198 73 0 72
0 0 330 0 330 -65 0 -65 0 -2 -211 -3 -210 -126 208 -127 208 -66 3 -66 3 0
-331z"/>
<path d="M1390 495 l0 -325 230 0 230 0 0 60 0 60 -160 0 -160 0 0 265 0 265
-70 0 -70 0 0 -325z"/>
</g>
</svg>
