<?xml version="1.0" standalone="no"?>
<!DOCTYPE svg PUBLIC "-//W3C//DTD SVG 20010904//EN"
 "http://www.w3.org/TR/2001/REC-SVG-20010904/DTD/svg10.dtd">
<svg version="1.0" xmlns="http://www.w3.org/2000/svg"
 width="600.000000pt" height="594.000000pt" viewBox="0 0 600.000000 594.000000"
 preserveAspectRatio="xMidYMid meet">

<g transform="translate(0.000000,594.000000) scale(0.100000,-0.100000)"
fill="#000000" stroke="none">
<path d="M2900 5605 l0 -185 -200 0 -200 0 0 -205 0 -205 200 0 200 0 0 -185
0 -185 210 0 210 0 0 185 0 185 195 0 195 0 0 205 0 205 -195 0 -195 0 0 185
0 185 -210 0 -210 0 0 -185z"/>
<path d="M1170 4891 c-97 -32 -177 -102 -225 -197 -27 -54 -30 -68 -30 -159 0
-91 3 -105 30 -160 80 -159 296 -294 455 -283 74 6 113 23 161 70 115 115 126
387 23 564 -33 58 -115 129 -172 149 -54 18 -205 29 -242 16z m155 -172 c93
-26 155 -138 155 -284 0 -121 -51 -187 -132 -170 -92 20 -222 126 -253 209
-35 92 5 188 98 232 59 27 75 29 132 13z"/>
<path d="M587 4869 c-9 -5 -25 -24 -35 -42 -16 -30 -17 -136 -20 -1747 -2
-943 0 -1735 3 -1759 10 -65 49 -101 110 -101 112 0 118 18 123 397 l4 303
2284 0 2284 0 0 -305 c0 -368 2 -376 88 -396 48 -11 96 10 119 53 17 31 18 94
21 1173 2 627 0 1223 -4 1325 l-6 184 -33 33 c-37 37 -85 44 -135 18 -54 -28
-53 -21 -48 -874 2 -432 3 -830 0 -884 l-4 -97 -2283 0 -2283 0 -8 178 c-9
169 -10 1326 -2 2102 3 345 2 367 -16 397 -11 17 -30 36 -43 42 -30 14 -92 14
-116 0z"/>
<path d="M1710 4164 c-158 -43 -262 -176 -262 -339 0 -82 18 -139 67 -205 44
-61 575 -569 618 -592 28 -15 69 -17 330 -18 l297 0 43 -44 c27 -28 57 -48 82
-55 56 -15 2134 -15 2190 0 52 14 119 82 134 134 14 52 15 576 0 628 -14 53
-61 102 -117 123 -44 17 -106 19 -889 22 -787 3 -842 4 -847 20 -9 27 -84 70
-133 78 -25 4 -107 5 -182 2 -125 -4 -143 -7 -192 -31 -64 -32 -86 -59 -102
-127 l-12 -50 -148 0 -149 0 -77 72 c-42 40 -130 125 -196 189 -150 144 -179
166 -256 190 -72 22 -124 23 -199 3z m151 -171 c29 -11 114 -85 273 -235 l231
-218 188 0 187 0 0 -180 0 -180 -266 0 -266 0 -246 239 c-304 294 -318 309
-331 344 -34 89 10 185 104 228 50 23 73 23 126 2z m1352 -262 c15 -12 17 -47
17 -312 0 -164 -4 -309 -9 -323 l-10 -25 -140 3 c-77 1 -144 5 -148 10 -9 9
-17 598 -9 632 8 30 21 33 162 31 86 -1 126 -6 137 -16z"/>
<path d="M1951 850 c-127 -27 -193 -144 -142 -255 31 -67 76 -94 228 -136 45
-12 92 -30 103 -41 62 -58 -39 -145 -138 -119 -44 12 -80 46 -91 87 -5 21 -13
29 -29 28 -112 -3 -112 -3 -112 -25 0 -78 62 -167 138 -196 56 -22 197 -24
255 -4 116 40 171 175 116 288 -26 55 -80 87 -196 119 -122 33 -142 43 -149
71 -22 84 167 97 199 13 11 -29 13 -30 79 -30 67 0 68 0 68 27 0 38 -37 110
-68 131 -58 40 -177 59 -261 42z"/>
<path d="M2543 733 c-23 -60 -79 -206 -126 -325 l-85 -218 77 0 76 0 24 70 24
70 127 0 127 0 27 -70 28 -70 74 0 c41 0 74 3 74 7 0 4 -57 150 -126 325
l-127 318 -77 0 -77 0 -40 -107z m157 -170 c19 -53 37 -101 38 -105 2 -4 -33
-8 -78 -8 -45 0 -80 4 -78 8 2 4 19 52 38 105 19 53 37 97 40 97 3 0 21 -44
40 -97z"/>
<path d="M3050 515 l0 -325 70 0 70 0 0 98 0 98 50 49 c27 27 51 47 53 44 2
-2 42 -68 88 -146 l83 -143 93 0 92 0 -128 197 -129 197 119 125 120 126 -93
3 -93 3 -40 -43 c-22 -24 -79 -86 -127 -138 l-88 -95 0 138 0 137 -70 0 -70 0
0 -325z"/>
<path d="M3700 515 l0 -325 70 0 70 0 0 325 0 325 -70 0 -70 0 0 -325z"/>
<path d="M3900 780 l0 -60 100 0 100 0 0 -265 0 -265 70 0 70 0 0 265 0 265
95 0 95 0 0 60 0 60 -265 0 -265 0 0 -60z"/>
</g>
</svg>
