<?xml version="1.0" standalone="no"?>
<!DOCTYPE svg PUBLIC "-//W3C//DTD SVG 20010904//EN"
 "http://www.w3.org/TR/2001/REC-SVG-20010904/DTD/svg10.dtd">
<svg version="1.0" xmlns="http://www.w3.org/2000/svg"
 width="600.000000pt" height="594.000000pt" viewBox="0 0 600.000000 594.000000"
 preserveAspectRatio="xMidYMid meet">

<g transform="translate(0.000000,594.000000) scale(0.100000,-0.100000)"
fill="#000000" stroke="none">
<path d="M2465 5846 c-72 -17 -151 -64 -195 -114 -117 -133 -84 -376 67 -486
138 -101 383 -79 483 42 71 86 96 243 56 359 -20 61 -92 145 -145 172 -76 39
-176 49 -266 27z"/>
<path d="M3427 5835 c-84 -21 -164 -64 -214 -113 -74 -75 -134 -224 -149 -374
l-7 -68 67 0 c36 0 66 2 66 4 0 30 25 167 36 199 54 154 212 258 369 244 210
-20 355 -177 355 -383 l0 -64 65 0 65 0 0 61 c0 133 -49 272 -127 359 -52 57
-103 91 -189 121 -78 28 -254 35 -337 14z"/>
<path d="M3494 5616 c-65 -16 -111 -45 -163 -101 -63 -68 -84 -124 -84 -220 0
-98 22 -153 90 -226 90 -96 206 -130 327 -95 105 31 168 84 212 181 62 135 27
303 -83 394 -75 62 -204 91 -299 67z"/>
<path d="M2418 5123 c-48 -12 -27 -96 29 -119 54 -23 223 -16 252 10 42 38 14
97 -51 110 -34 7 -203 6 -230 -1z"/>
<path d="M1932 5055 c-100 -28 -151 -70 -172 -143 -6 -24 -10 -329 -10 -875
l0 -839 28 -28 c42 -42 97 -55 182 -43 49 6 73 6 78 -1 4 -6 8 -445 9 -975 1
-859 3 -965 17 -979 23 -23 564 -19 613 5 20 9 40 12 50 7 26 -11 1637 -14
1706 -2 45 7 70 5 115 -7 31 -9 81 -15 111 -13 50 3 55 6 85 46 28 40 31 51
30 110 -3 115 -62 300 -291 917 -177 476 -243 663 -290 820 l-36 120 -1 835
c-2 608 -5 841 -14 856 -17 31 -59 34 -476 34 l-371 0 -35 47 c-65 88 -176
127 -346 121 -92 -3 -106 -6 -126 -26 l-23 -23 0 -362 0 -362 -27 -56 c-20
-39 -38 -61 -66 -77 -110 -62 -256 -28 -314 72 -23 41 -23 44 -28 436 l-5 395
-170 2 c-122 1 -185 -2 -223 -12z m2102 -278 c53 -35 52 -31 46 -727 l-5 -645
-22 35 c-35 56 -225 560 -230 610 -4 37 2 63 37 143 44 103 62 198 40 212 -40
24 -103 -83 -140 -238 -29 -121 -26 -162 21 -285 22 -59 172 -476 334 -927
161 -451 323 -896 360 -990 136 -346 195 -542 195 -645 l0 -62 -42 7 c-71 11
-93 33 -96 98 -2 46 -7 57 -24 63 -29 9 -67 -23 -87 -72 -21 -55 -39 -74 -66
-74 -28 0 -44 19 -70 83 -11 28 -28 55 -37 60 -27 17 -64 -15 -77 -68 -13 -53
-41 -85 -75 -85 -32 0 -42 15 -55 83 -13 72 -16 77 -47 77 -42 0 -62 -17 -79
-69 -44 -133 -111 -136 -143 -6 -15 59 -21 71 -44 79 -36 13 -78 -14 -78 -50
0 -14 -7 -41 -16 -60 -14 -30 -21 -34 -55 -34 -43 0 -52 11 -64 75 -4 22 -11
46 -17 53 -26 31 -80 -6 -93 -65 -10 -52 -41 -83 -80 -83 -40 0 -55 20 -55 74
0 19 -4 46 -10 60 -21 56 -92 16 -106 -59 -7 -39 -37 -75 -63 -75 -24 0 -45
25 -70 82 -31 73 -54 73 -120 -1 -46 -51 -62 -61 -87 -61 -39 0 -49 12 -64 72
-15 58 -29 70 -72 66 l-33 -3 -1 -70 c0 -39 -4 -77 -8 -84 -11 -17 -98 -10
-122 9 -23 20 -15 82 30 225 54 173 59 262 51 945 -7 552 -6 576 12 591 10 9
34 19 54 23 l37 6 6 -317 c4 -175 10 -379 14 -453 l7 -135 209 675 c115 371
220 716 234 765 13 50 26 92 29 95 2 3 74 7 158 10 153 5 154 5 184 34 80 77
60 226 -79 606 -102 278 -142 432 -116 444 6 3 157 4 336 3 297 -2 328 -4 354
-20z m-1873 -57 c23 -13 49 -61 49 -90 0 -34 -53 -80 -91 -80 -45 0 -99 52
-99 95 0 61 84 105 141 75z"/>
<path d="M2525 4890 c-13 -21 5 -60 31 -66 32 -8 46 6 42 42 -2 24 -8 29 -35
32 -17 2 -34 -2 -38 -8z"/>
<path d="M2527 4693 c-12 -12 -7 -50 7 -63 23 -19 61 -8 64 18 2 13 -2 30 -8
38 -13 14 -51 19 -63 7z"/>
<path d="M2513 4494 c-9 -25 11 -49 45 -52 24 -2 32 2 37 18 4 12 1 27 -5 35
-17 20 -69 19 -77 -1z"/>
<path d="M2517 4304 c-15 -15 -6 -44 18 -60 32 -21 58 -4 53 35 -2 21 -9 27
-33 29 -17 2 -34 0 -38 -4z"/>
<path d="M753 850 c-93 -20 -165 -78 -204 -165 -18 -38 -24 -74 -27 -152 -6
-141 13 -199 87 -274 64 -63 117 -84 217 -83 81 1 144 26 189 76 34 37 74 109
75 133 0 9 -103 45 -129 45 -5 0 -15 -16 -21 -35 -6 -18 -27 -48 -46 -65 -67
-58 -166 -34 -210 53 -22 41 -29 170 -14 227 7 27 26 59 50 82 35 35 42 38 95
38 51 0 60 -3 89 -33 17 -18 36 -41 41 -51 9 -16 15 -17 73 -6 34 7 64 16 67
20 9 15 -45 108 -79 137 -60 49 -167 71 -253 53z"/>
<path d="M1192 576 l3 -264 30 -43 c18 -26 50 -53 79 -68 42 -22 63 -25 140
-25 104 0 153 13 202 56 56 49 64 96 64 370 l0 238 -70 0 -70 0 0 -229 c0
-126 -4 -241 -10 -255 -19 -52 -102 -74 -171 -46 -55 23 -59 45 -59 300 l0
230 -71 0 -70 0 3 -264z"/>
<path d="M1790 780 l0 -60 95 0 95 0 0 -265 0 -265 70 0 70 0 0 265 0 265 95
0 95 0 0 60 0 60 -260 0 -260 0 0 -60z"/>
<path d="M2380 515 l0 -325 70 0 70 0 0 325 0 325 -70 0 -70 0 0 -325z"/>
<path d="M2890 515 l0 -325 65 0 65 0 2 197 3 197 120 -197 120 -197 73 0 72
0 0 325 0 325 -65 0 -65 0 -2 -206 -3 -206 -125 206 -125 206 -67 0 -68 0 0
-325z"/>
<path d="M3530 515 l0 -325 70 0 70 0 0 325 0 325 -70 0 -70 0 0 -325z"/>
<path d="M3780 515 l0 -325 70 0 70 0 0 93 0 93 53 52 54 53 84 -145 84 -146
161 0 162 0 23 67 24 68 129 0 128 0 25 -67 25 -68 78 0 78 0 -129 323 -129
322 -77 3 -78 2 -104 -272 c-58 -150 -113 -293 -123 -317 l-18 -43 -124 188
-123 189 118 120 c66 66 119 124 119 128 0 4 -42 7 -92 7 l-93 0 -125 -137
-125 -137 -3 137 -3 137 -69 0 -70 0 0 -325z m984 -42 c7 -23 6 -23 -73 -23
l-80 0 35 97 c19 53 38 101 41 106 5 9 53 -102 77 -180z"/>
<path d="M5080 515 l0 -325 70 0 70 0 0 140 0 140 125 0 125 0 0 -140 0 -140
70 0 70 0 0 325 0 325 -70 0 -70 0 0 -125 0 -125 -125 0 -125 0 0 125 0 125
-70 0 -70 0 0 -325z"/>
</g>
</svg>
