<?xml version="1.0" standalone="no"?>
<!DOCTYPE svg PUBLIC "-//W3C//DTD SVG 20010904//EN"
 "http://www.w3.org/TR/2001/REC-SVG-20010904/DTD/svg10.dtd">
<svg version="1.0" xmlns="http://www.w3.org/2000/svg"
 width="600.000000pt" height="591.000000pt" viewBox="0 0 600.000000 591.000000"
 preserveAspectRatio="xMidYMid meet">

<g transform="translate(0.000000,591.000000) scale(0.100000,-0.100000)"
fill="#000000" stroke="none">
<path d="M2938 5701 c-134 -34 -235 -131 -348 -333 -34 -62 -91 -162 -125
-223 -34 -60 -122 -216 -195 -345 -73 -129 -206 -363 -295 -520 -89 -157 -224
-395 -300 -530 -76 -135 -199 -351 -274 -480 -282 -491 -502 -887 -521 -938
-43 -114 -32 -270 26 -390 59 -121 208 -227 351 -251 49 -9 558 -11 1863 -9
l1795 3 59 23 c131 49 225 135 284 260 36 75 37 80 37 192 -1 97 -5 125 -25
175 -24 63 -1710 3040 -1787 3157 -127 192 -322 268 -545 209z m275 -802 c47
-13 112 -70 138 -121 43 -85 52 -158 46 -398 -4 -124 -13 -297 -21 -385 -8
-88 -26 -288 -41 -445 -27 -293 -40 -371 -75 -439 -36 -71 -105 -107 -192 -99
-92 9 -146 90 -173 260 -21 130 -88 1235 -81 1331 9 122 54 207 133 254 83 48
185 65 266 42z m35 -2170 c106 -53 156 -140 155 -271 0 -52 -6 -79 -27 -123
-81 -164 -328 -209 -470 -84 -63 56 -88 108 -94 194 -5 84 7 136 47 196 55 81
133 118 252 119 65 0 84 -4 137 -31z"/>
<path d="M3265 1500 c-107 -15 -166 -73 -173 -170 -5 -72 16 -121 69 -160 36
-25 70 -38 200 -75 75 -21 92 -35 92 -75 0 -52 -39 -80 -113 -80 -48 0 -64 5
-89 25 -16 14 -35 42 -41 61 l-12 36 -67 -7 c-36 -4 -68 -8 -69 -10 -2 -2 3
-29 12 -59 20 -67 66 -123 121 -147 84 -37 216 -33 302 8 72 34 117 145 93
233 -24 89 -79 129 -239 171 -94 25 -137 54 -127 86 14 44 121 62 172 29 14
-10 30 -31 36 -47 9 -26 14 -29 56 -29 26 0 58 3 70 7 21 5 23 10 17 42 -23
123 -141 185 -310 161z"/>
<path d="M1312 1167 c-67 -177 -122 -325 -122 -329 0 -5 33 -8 73 -8 l73 0 24
70 24 70 127 0 128 0 21 -57 c11 -32 23 -64 25 -70 5 -14 155 -19 155 -6 0 3
-57 152 -127 330 l-126 323 -76 0 -76 0 -123 -323z m209 116 c6 -16 24 -63 40
-105 l28 -78 -79 0 -79 0 37 105 c20 58 38 105 40 105 1 0 7 -12 13 -27z"/>
<path d="M1900 1160 l0 -330 235 0 235 0 0 60 0 60 -165 0 -165 0 0 270 0 270
-70 0 -70 0 0 -330z"/>
<path d="M2525 1208 c-59 -156 -116 -305 -126 -331 l-19 -48 77 3 76 3 25 68
25 67 126 0 127 0 24 -67 25 -68 79 -3 c48 -2 77 1 74 7 -1 6 -59 154 -128
330 l-125 321 -76 0 -76 0 -108 -282z m225 -7 c16 -45 30 -87 30 -92 0 -5 -34
-9 -76 -9 -68 0 -75 2 -69 18 3 9 20 57 37 105 35 100 33 100 78 -22z"/>
<path d="M3869 1463 c-14 -38 -226 -593 -234 -615 -6 -16 1 -18 68 -18 l76 0
21 58 c11 31 23 63 25 70 4 10 35 12 132 10 l128 -3 24 -67 25 -68 78 0 78 0
-15 38 c-8 20 -66 168 -128 327 l-113 290 -77 3 c-76 3 -77 3 -88 -25z m155
-340 c7 -22 6 -23 -69 -23 -57 0 -76 3 -73 13 3 6 20 56 38 109 l34 97 32 -87
c17 -48 34 -97 38 -109z"/>
<path d="M4340 1160 l0 -330 70 0 70 0 2 199 3 199 120 -199 120 -199 73 0 72
0 0 330 0 330 -65 0 -65 0 -2 -210 -3 -211 -125 210 -125 210 -72 1 -73 0 0
-330z"/>
<path d="M4626 664 c-36 -11 -64 -31 -105 -72 -74 -75 -96 -135 -95 -257 2
-154 53 -248 166 -304 56 -28 70 -31 158 -31 108 0 178 18 249 65 l41 28 0
138 0 139 -145 0 -145 0 0 -65 0 -65 75 0 75 0 0 -35 c0 -32 -4 -37 -50 -60
-84 -42 -172 -32 -227 27 -73 78 -71 274 3 340 27 24 88 48 121 48 49 -1 111
-36 129 -73 l16 -33 65 12 c35 6 67 14 69 17 13 13 -24 85 -63 124 -28 28 -58
47 -94 57 -65 20 -178 19 -243 0z"/>
<path d="M1150 340 l0 -330 70 0 70 0 0 120 0 120 74 0 c102 0 173 15 214 46
90 69 98 235 16 317 -48 47 -96 57 -289 57 l-155 0 0 -330z m299 199 c37 -13
64 -58 55 -93 -12 -50 -47 -69 -134 -74 l-80 -5 0 92 0 91 64 0 c34 0 77 -5
95 -11z"/>
<path d="M1750 340 l0 -330 250 0 250 0 0 60 0 60 -180 0 -180 0 0 80 0 80
160 0 160 0 0 60 0 60 -160 0 -160 0 0 70 0 70 170 0 170 0 0 60 0 60 -240 0
-240 0 0 -330z"/>
<path d="M2350 340 l0 -330 65 0 65 0 2 200 3 199 120 -199 120 -199 73 -1 72
0 0 330 0 330 -65 0 -65 0 -2 -209 -3 -208 -125 206 -125 206 -68 3 -67 3 0
-331z"/>
<path d="M2950 610 l0 -60 95 0 95 0 0 -270 0 -270 70 0 70 0 0 270 0 270 95
0 95 0 0 60 0 60 -260 0 -260 0 0 -60z"/>
<path d="M3540 340 l0 -330 70 0 70 0 0 330 0 330 -70 0 -70 0 0 -330z"/>
<path d="M3800 340 l0 -330 65 0 65 0 2 199 3 199 120 -199 120 -198 73 -1 72
0 0 330 0 330 -65 0 -65 0 -2 -209 -3 -209 -125 207 -126 206 -67 3 -67 3 0
-331z"/>
</g>
</svg>
