<?xml version="1.0" standalone="no"?>
<!DOCTYPE svg PUBLIC "-//W3C//DTD SVG 20010904//EN"
 "http://www.w3.org/TR/2001/REC-SVG-20010904/DTD/svg10.dtd">
<svg version="1.0" xmlns="http://www.w3.org/2000/svg"
 width="256.000000pt" height="254.000000pt" viewBox="0 0 256.000000 254.000000"
 preserveAspectRatio="xMidYMid meet">

<g transform="translate(0.000000,254.000000) scale(0.100000,-0.100000)"
fill="#000000" stroke="none">
<path d="M1584 1728 l-19 -23 23 19 c21 18 27 26 19 26 -2 0 -12 -10 -23 -22z"/>
<path d="M1534 1678 l-19 -23 23 19 c21 18 27 26 19 26 -2 0 -12 -10 -23 -22z"/>
<path d="M1774 1338 l-19 -23 23 19 c21 18 27 26 19 26 -2 0 -12 -10 -23 -22z"/>
<path d="M970 1256 c0 -2 8 -10 18 -17 15 -13 16 -12 3 4 -13 16 -21 21 -21
13z"/>
<path d="M1629 1193 l-24 -28 28 24 c15 14 27 26 27 28 0 8 -8 1 -31 -24z"/>
<path d="M780 327 c-13 -7 -28 -26 -34 -44 -13 -48 11 -79 79 -98 58 -17 70
-36 35 -55 -23 -12 -54 0 -64 25 -3 9 -18 15 -36 15 -28 0 -31 -3 -25 -22 14
-45 35 -67 70 -74 79 -15 135 18 135 79 0 46 -16 64 -72 82 -64 21 -78 32 -58
45 23 15 39 12 57 -10 10 -11 30 -20 46 -20 25 0 28 3 22 23 -17 57 -94 85
-155 54z"/>
<path d="M50 205 l0 -125 25 0 c23 0 25 4 25 45 l0 45 44 0 c60 0 96 29 96 79
0 20 -7 47 -16 59 -13 20 -24 22 -95 22 l-79 0 0 -125z m126 60 c9 -23 -15
-45 -47 -45 -26 0 -29 4 -29 30 0 28 3 30 35 30 23 0 38 -6 41 -15z"/>
<path d="M270 205 l0 -125 100 0 100 0 0 25 c0 24 -2 25 -70 25 l-70 0 0 30 0
30 60 0 c57 0 60 1 60 25 0 24 -3 25 -60 25 -53 0 -60 2 -60 20 0 18 7 20 65
20 63 0 65 1 65 25 0 25 0 25 -95 25 l-95 0 0 -125z"/>
<path d="M500 205 l0 -125 30 0 c29 0 30 1 30 50 0 38 4 50 15 50 8 0 31 -22
51 -50 31 -43 40 -50 71 -50 l34 0 -23 41 c-12 22 -28 45 -34 50 -9 7 -6 16
12 34 28 28 31 70 8 103 -14 20 -23 22 -105 22 l-89 0 0 -125z m145 50 c0 -16
-8 -21 -42 -23 -40 -3 -43 -2 -43 23 0 25 3 26 43 23 34 -2 42 -7 42 -23z"/>
<path d="M970 205 l0 -125 100 0 100 0 0 25 c0 24 -2 25 -70 25 l-70 0 0 30 0
30 65 0 c63 0 65 1 65 25 0 24 -2 25 -65 25 -58 0 -65 2 -65 20 0 18 7 20 70
20 68 0 70 1 70 25 l0 25 -100 0 -100 0 0 -125z"/>
<path d="M1190 305 c0 -22 4 -25 35 -25 l35 0 0 -100 0 -100 30 0 30 0 0 100
0 100 35 0 c31 0 35 3 35 25 l0 25 -100 0 -100 0 0 -25z"/>
<path d="M1410 235 c0 -52 5 -105 11 -118 23 -51 118 -64 164 -24 25 21 27 29
32 130 l6 107 -32 0 -31 0 0 -83 c0 -110 -30 -155 -74 -111 -12 12 -16 37 -16
105 l0 89 -30 0 -30 0 0 -95z"/>
<path d="M1749 253 c-1 -43 -4 -89 -8 -103 -9 -32 -35 -33 -39 -2 -3 19 -8 23
-25 18 -12 -3 -25 -6 -29 -6 -17 0 -6 -48 15 -68 34 -32 104 -25 129 12 4 6 8
59 8 119 l0 107 -25 0 c-24 0 -25 -2 -26 -77z"/>
<path d="M1850 226 c0 -135 10 -151 100 -151 90 0 100 16 100 151 l0 104 -30
0 -30 0 0 -95 c0 -84 -2 -95 -20 -105 -14 -8 -26 -8 -40 0 -18 10 -20 21 -20
105 l0 95 -30 0 -30 0 0 -104z"/>
<path d="M2120 218 c-24 -62 -45 -119 -48 -125 -3 -9 6 -13 27 -13 24 0 34 6
43 25 17 37 94 37 108 0 7 -19 17 -25 40 -25 16 0 30 3 30 7 0 4 -21 60 -46
125 -46 117 -47 118 -79 118 -32 0 -32 -1 -75 -112z m94 -15 c6 -20 4 -23 -18
-23 -30 0 -29 -2 -15 40 12 34 19 30 33 -17z"/>
<path d="M2340 206 l0 -126 30 0 c29 0 29 0 32 66 l3 66 38 -66 c34 -57 43
-66 68 -66 l29 0 0 125 0 125 -25 0 c-23 0 -24 -3 -27 -70 l-3 -71 -41 68
c-35 59 -44 68 -72 71 l-32 3 0 -125z"/>
</g>
</svg>
