<?xml version="1.0" standalone="no"?>
<!DOCTYPE svg PUBLIC "-//W3C//DTD SVG 20010904//EN"
 "http://www.w3.org/TR/2001/REC-SVG-20010904/DTD/svg10.dtd">
<svg version="1.0" xmlns="http://www.w3.org/2000/svg"
 width="600.000000pt" height="594.000000pt" viewBox="0 0 600.000000 594.000000"
 preserveAspectRatio="xMidYMid meet">

<g transform="translate(0.000000,594.000000) scale(0.100000,-0.100000)"
fill="#000000" stroke="none">
<path d="M170 500 l0 -330 70 0 70 0 0 330 0 330 -70 0 -70 0 0 -330z"/>
<path d="M420 501 l0 -332 218 3 219 3 37 29 c96 73 100 237 6 293 -36 21 -37
23 -5 53 73 69 48 206 -48 257 -26 14 -67 18 -229 21 l-198 4 0 -331z m354
188 c17 -13 26 -30 26 -49 0 -19 -9 -36 -26 -49 -23 -18 -41 -21 -120 -21
l-94 0 0 70 0 70 94 0 c79 0 97 -3 120 -21z m1 -254 c39 -16 59 -52 49 -91
-11 -44 -39 -54 -156 -54 l-108 0 0 80 0 80 90 0 c57 0 104 -5 125 -15z"/>
<path d="M1145 548 c-59 -156 -117 -305 -127 -331 l-18 -48 76 3 76 3 25 68
25 67 127 0 127 0 24 -70 24 -70 78 0 c43 0 78 1 78 3 0 1 -58 148 -129 327
l-128 325 -75 3 -74 3 -109 -283z m223 -8 l39 -105 -75 -3 c-41 -2 -76 -1 -79
2 -2 2 13 52 33 110 21 58 39 105 40 103 1 -1 20 -49 42 -107z"/>
<path d="M1720 501 l0 -331 166 0 c184 0 225 8 279 52 76 63 117 206 96 342
-18 122 -62 195 -145 239 -36 19 -61 21 -218 25 l-178 4 0 -331z m329 184 c50
-25 71 -81 71 -190 0 -75 -4 -99 -22 -135 -30 -58 -55 -70 -155 -70 l-83 0 0
211 0 212 78 -6 c44 -3 93 -12 111 -22z"/>
<path d="M2543 813 c-4 -10 -60 -156 -125 -325 -65 -169 -118 -310 -118 -313
0 -3 33 -5 74 -5 l73 0 25 68 25 67 128 0 127 0 25 -67 25 -68 78 0 78 0 -100
253 c-55 138 -114 287 -131 330 l-30 77 -74 0 c-61 0 -75 -3 -80 -17z m157
-375 c0 -5 -36 -8 -80 -8 l-79 0 34 93 c18 50 37 100 41 110 5 14 17 -8 45
-85 21 -56 39 -106 39 -110z"/>
<path d="M3010 500 l0 -330 70 0 70 0 0 140 0 140 125 0 125 0 0 -140 0 -140
70 0 70 0 0 330 0 330 -70 0 -70 0 0 -130 0 -130 -125 0 -125 0 0 130 0 130
-70 0 -70 0 0 -330z"/>
<path d="M4535 548 c-60 -156 -117 -305 -127 -331 l-18 -48 76 3 76 3 25 68
25 67 127 0 127 0 24 -70 24 -70 78 0 c43 0 78 1 78 3 0 1 -58 148 -129 327
l-128 325 -74 3 -75 3 -109 -283z m223 -8 l39 -105 -75 -3 c-41 -2 -76 -1 -79
2 -2 2 13 52 33 110 21 58 39 105 40 103 1 -1 20 -49 42 -107z"/>
<path d="M5100 500 l0 -330 70 0 70 0 0 330 0 330 -70 0 -70 0 0 -330z"/>
<path d="M5360 500 l0 -330 65 0 65 0 2 198 3 197 120 -197 120 -198 73 0 72
0 0 330 0 330 -65 0 -65 0 -2 -210 -3 -210 -126 207 -126 208 -67 3 -66 3 0
-331z"/>
<path d="M3910 495 l0 -325 235 0 235 0 0 60 0 60 -165 0 -165 0 0 265 0 265
-70 0 -70 0 0 -325z"/>
</g>
</svg>
