<?xml version="1.0" standalone="no"?>
<!DOCTYPE svg PUBLIC "-//W3C//DTD SVG 20010904//EN"
 "http://www.w3.org/TR/2001/REC-SVG-20010904/DTD/svg10.dtd">
<svg version="1.0" xmlns="http://www.w3.org/2000/svg"
 width="600.000000pt" height="594.000000pt" viewBox="0 0 600.000000 594.000000"
 preserveAspectRatio="xMidYMid meet">

<g transform="translate(0.000000,594.000000) scale(0.100000,-0.100000)"
fill="#000000" stroke="none">
<path d="M3006 5823 c-4 -4 -22 -6 -41 -4 -61 5 -292 -97 -1080 -474 -192 -92
-528 -252 -745 -356 l-395 -187 -3 -346 -2 -345 62 23 c35 13 533 198 1108
410 l1046 386 59 -15 c187 -49 609 -199 1485 -530 457 -173 759 -281 764 -273
2 2 0 158 -3 347 l-6 345 -140 71 c-144 72 -189 94 -550 260 -259 119 -290
133 -340 155 -22 10 -65 29 -95 43 -30 14 -113 52 -185 85 -352 162 -429 199
-559 267 -216 112 -355 163 -380 138z"/>
<path d="M1871 4275 c-618 -211 -1126 -387 -1130 -390 -3 -4 -8 -360 -10 -791
l-3 -784 73 -88 c240 -288 552 -530 904 -702 320 -157 497 -212 975 -299 455
-84 1033 14 1556 264 357 170 644 383 911 675 l123 135 0 265 c0 146 -3 504
-7 796 l-6 531 -1121 387 c-617 212 -1126 386 -1131 386 -6 -1 -516 -174
-1134 -385z m638 -270 c182 -48 303 -185 331 -377 25 -171 -40 -317 -193 -435
l-61 -47 88 -28 c108 -33 163 -65 210 -120 59 -68 72 -138 92 -471 3 -55 10
-95 14 -90 19 19 41 126 61 296 24 209 101 571 160 750 52 160 119 284 186
348 101 96 263 149 391 129 219 -36 357 -171 446 -440 45 -136 138 -543 171
-740 48 -300 95 -725 95 -868 l0 -82 -92 -61 c-308 -203 -729 -338 -1179 -380
-169 -15 -545 -7 -664 15 -242 44 -511 124 -678 200 -94 43 -101 56 -93 176 7
106 -2 154 -31 158 -12 2 -24 13 -27 25 -16 60 5 607 29 771 31 205 81 292
190 330 233 81 231 80 157 133 -114 83 -181 203 -189 336 -15 229 115 414 330
472 68 18 188 18 256 0z"/>
<path d="M170 500 l0 -330 70 0 70 0 0 330 0 330 -70 0 -70 0 0 -330z"/>
<path d="M420 499 l0 -330 218 3 219 3 37 29 c45 34 75 95 76 152 0 53 -37
122 -76 144 l-31 16 33 36 c44 49 53 109 26 170 -39 89 -100 107 -354 108
l-148 0 0 -331z m359 187 c30 -27 27 -70 -5 -95 -23 -18 -41 -21 -120 -21
l-94 0 0 71 0 71 99 -4 c80 -2 103 -7 120 -22z m-17 -246 c42 -12 61 -39 60
-84 -1 -54 -29 -66 -153 -66 l-109 0 0 80 0 80 83 0 c45 0 99 -5 119 -10z"/>
<path d="M1129 509 c-68 -178 -125 -326 -127 -331 -2 -4 31 -8 72 -8 52 0 78
4 81 13 2 6 14 38 25 70 l22 58 126 -3 127 -3 25 -67 25 -68 77 0 78 0 -15 38
c-8 20 -66 168 -129 327 l-115 290 -74 3 -73 3 -125 -322z m240 23 l39 -102
-79 0 c-43 0 -79 3 -79 8 0 14 75 213 77 205 2 -5 21 -54 42 -111z"/>
<path d="M1710 501 l0 -331 178 0 c165 0 180 2 228 24 98 46 144 140 144 294
0 163 -44 260 -143 311 -45 22 -61 25 -228 29 l-179 5 0 -332z m283 200 c95
-16 134 -91 125 -241 -5 -85 -27 -136 -69 -157 -13 -7 -62 -13 -111 -13 l-88
0 0 210 0 210 48 -1 c26 0 69 -4 95 -8z"/>
<path d="M2541 808 c-174 -449 -241 -624 -241 -630 0 -5 33 -8 73 -8 l74 0 24
70 24 70 126 0 127 0 27 -70 27 -70 74 0 c41 0 74 3 74 7 0 4 -57 152 -127
330 l-128 323 -73 0 c-66 0 -73 -2 -81 -22z m118 -261 c18 -50 36 -98 38 -104
4 -10 -15 -13 -76 -13 l-80 0 37 105 c20 58 39 105 42 105 3 0 20 -42 39 -93z"/>
<path d="M3010 500 l0 -330 70 0 70 0 0 140 0 140 120 0 120 0 0 -140 0 -140
75 0 75 0 -2 327 -3 328 -70 0 -70 0 -3 -127 -3 -128 -119 0 -120 0 0 130 0
130 -70 0 -70 0 0 -330z"/>
<path d="M3910 500 l0 -330 70 0 70 0 0 140 0 140 120 0 120 0 0 -140 0 -140
70 0 70 0 0 330 0 330 -70 0 -70 0 0 -130 0 -130 -120 0 -120 0 0 130 0 130
-70 0 -70 0 0 -330z"/>
<path d="M4725 788 c-33 -82 -235 -609 -235 -614 0 -2 33 -4 74 -4 l73 0 25
68 25 67 128 0 127 0 25 -67 25 -68 78 0 77 0 -130 330 -130 330 -73 0 -72 0
-17 -42z m130 -252 c19 -53 35 -99 35 -101 0 -3 -36 -5 -79 -5 l-79 0 34 97
c37 101 44 117 50 111 2 -2 19 -48 39 -102z"/>
<path d="M5430 577 c0 -289 -2 -297 -70 -297 -44 0 -70 26 -70 72 0 15 -4 29
-8 32 -4 2 -36 2 -70 -1 -59 -5 -62 -7 -62 -32 0 -70 43 -147 99 -175 71 -37
196 -26 253 22 63 53 68 78 68 370 l0 262 -70 0 -70 0 0 -253z"/>
<path d="M5700 500 l0 -330 70 0 70 0 0 330 0 330 -70 0 -70 0 0 -330z"/>
</g>
</svg>
