<?xml version="1.0" standalone="no"?>
<!DOCTYPE svg PUBLIC "-//W3C//DTD SVG 20010904//EN"
 "http://www.w3.org/TR/2001/REC-SVG-20010904/DTD/svg10.dtd">
<svg version="1.0" xmlns="http://www.w3.org/2000/svg"
 width="600.000000pt" height="594.000000pt" viewBox="0 0 600.000000 594.000000"
 preserveAspectRatio="xMidYMid meet">

<g transform="translate(0.000000,594.000000) scale(0.100000,-0.100000)"
fill="#000000" stroke="none">
<path d="M2644 5792 c-132 -47 -272 -214 -298 -354 l-7 -38 -324 0 c-179 0
-325 -4 -325 -8 0 -4 -92 -380 -205 -836 -113 -455 -205 -835 -205 -845 0 -19
160 -181 179 -181 6 0 14 12 17 28 4 15 61 241 128 502 l121 475 205 -3 c113
-2 396 -9 630 -18 234 -8 562 -19 730 -24 168 -6 436 -15 595 -20 160 -6 430
-15 600 -20 171 -5 318 -12 328 -16 13 -5 17 -14 13 -33 -3 -14 -69 -406 -147
-871 -139 -838 -264 -1558 -275 -1593 -3 -11 -12 -16 -22 -13 -17 6 -1648 337
-2637 536 -427 86 -525 107 -525 114 0 0 22 87 50 191 l49 190 -89 90 c-49 49
-91 87 -94 84 -10 -10 -198 -770 -193 -782 3 -7 234 -63 568 -136 310 -68 773
-170 1029 -228 256 -57 609 -135 785 -174 176 -39 493 -109 705 -156 676 -150
660 -148 660 -111 0 30 66 454 211 1358 66 410 167 1047 224 1415 58 369 121
766 141 883 19 118 32 217 29 220 -4 4 -176 7 -383 7 l-376 0 -21 60 c-45 129
-137 240 -241 291 -55 27 -68 29 -174 29 -104 0 -120 -3 -173 -27 -115 -54
-240 -215 -262 -340 l-7 -38 -223 0 -222 0 -7 49 c-15 117 -131 266 -251 325
-52 26 -73 30 -160 33 -78 3 -111 -1 -151 -15z m228 -248 c32 -20 98 -112 98
-136 0 -5 -67 -8 -149 -8 l-148 0 4 -52 c7 -86 22 -139 55 -184 35 -49 48
-107 38 -165 -9 -48 -31 -81 -84 -123 -30 -25 -48 -31 -101 -34 -56 -4 -70 -1
-109 22 -68 40 -99 86 -103 154 l-4 57 30 -55 c17 -30 49 -72 71 -92 33 -32
46 -38 84 -38 61 0 105 37 113 95 4 35 -2 54 -46 138 -47 89 -51 103 -51 165
0 83 11 124 49 184 32 51 60 73 119 94 45 16 85 10 134 -22z m1263 25 c22 -6
51 -20 65 -31 26 -20 80 -94 80 -110 0 -4 -52 -8 -115 -8 l-115 0 0 -27 c0
-80 22 -160 60 -218 52 -80 64 -137 45 -203 -21 -71 -88 -137 -161 -158 -49
-14 -59 -14 -109 1 -90 26 -155 98 -171 187 -5 30 -3 29 26 -20 37 -64 80 -92
138 -92 37 0 50 6 78 34 47 47 46 92 -1 170 -46 77 -65 135 -65 200 0 114 57
222 140 264 51 25 52 26 105 11z"/>
<path d="M5325 5268 c-2 -7 -45 -296 -95 -643 -50 -346 -131 -895 -180 -1220
-49 -324 -119 -795 -155 -1045 -93 -647 -142 -970 -148 -977 -3 -3 -174 33
-379 81 -205 47 -616 141 -913 210 -297 68 -639 147 -760 175 -226 51 -547
125 -925 213 -315 72 -741 168 -751 168 -17 0 -9 -39 13 -64 24 -27 114 -50
1243 -317 209 -49 499 -119 645 -154 146 -35 427 -103 625 -150 198 -47 470
-112 605 -145 582 -140 751 -180 764 -180 8 0 17 12 20 27 9 45 50 347 146
1068 50 374 117 876 150 1115 144 1056 210 1549 216 1609 7 60 5 67 -37 152
-31 64 -48 89 -61 89 -10 0 -20 -6 -23 -12z"/>
<path d="M492 4193 c-66 -32 -109 -121 -97 -200 6 -48 11 -53 548 -590 311
-312 550 -543 560 -543 21 0 247 228 247 250 0 8 -246 259 -547 557 l-548 542
-65 0 c-40 0 -78 -6 -98 -16z"/>
<path d="M1876 4172 c-15 -25 -85 -521 -73 -522 127 -15 574 -46 580 -41 8 8
68 366 82 487 l7 61 -30 6 c-60 12 -559 20 -566 9z"/>
<path d="M2683 4149 c-27 -10 -24 0 -72 -272 -46 -256 -48 -282 -24 -291 9 -4
75 -11 147 -16 72 -6 181 -14 241 -20 61 -5 141 -11 179 -12 l69 -3 8 30 c24
90 99 549 92 556 -5 5 -139 14 -299 19 -159 6 -296 12 -304 14 -9 2 -25 -1
-37 -5z"/>
<path d="M3556 4053 c-19 -86 -84 -457 -88 -503 -3 -32 -1 -35 31 -41 19 -4
75 -10 125 -14 135 -9 433 -34 493 -41 66 -7 67 -5 99 179 74 426 76 439 65
450 -8 8 -456 32 -678 36 -31 1 -32 0 -47 -66z"/>
<path d="M1692 3376 c-6 -6 -13 -24 -16 -41 -6 -27 0 -37 74 -110 53 -53 80
-87 80 -102 0 -14 6 -23 15 -23 28 0 43 -46 55 -167 7 -68 14 -123 16 -123 1
0 38 -7 81 -15 43 -8 95 -15 116 -15 l37 0 0 63 c0 71 21 143 57 199 28 42 62
163 65 234 l3 48 -250 27 c-137 15 -267 30 -287 32 -22 3 -41 0 -46 -7z"/>
<path d="M2480 3355 c-51 -24 -70 -44 -70 -80 0 -57 45 -73 96 -32 75 59 258
-4 383 -131 119 -121 171 -275 123 -368 -28 -55 -77 -98 -147 -131 -55 -26
-70 -28 -175 -28 -134 0 -189 15 -272 75 -133 95 -152 278 -38 374 25 21 42
26 83 26 80 0 142 -41 213 -140 60 -83 86 -100 123 -80 37 19 27 61 -37 147
-98 132 -179 182 -293 183 -87 0 -158 -35 -211 -105 -48 -63 -62 -116 -56
-217 3 -67 10 -93 33 -135 76 -142 228 -228 420 -240 308 -19 517 166 474 420
-28 171 -181 358 -359 440 -55 26 -80 31 -160 34 -71 2 -104 -1 -130 -12z"/>
<path d="M3372 3183 c-5 -10 -40 -140 -78 -290 -53 -211 -66 -275 -57 -284 15
-15 685 -119 697 -108 9 8 139 498 151 570 6 34 4 40 -17 49 -18 8 -628 80
-675 80 -7 0 -16 -8 -21 -17z"/>
<path d="M1661 2946 c-68 -68 -112 -120 -109 -128 6 -14 247 -88 286 -88 28 0
28 5 -5 170 -24 125 -35 160 -52 160 -3 0 -58 -51 -120 -114z"/>
<path d="M940 790 l0 -60 95 0 95 0 0 -270 0 -270 70 0 70 0 0 270 0 270 95 0
95 0 0 60 0 60 -260 0 -260 0 0 -60z"/>
<path d="M1632 798 c-11 -29 -68 -176 -126 -326 -58 -151 -106 -276 -106 -278
0 -2 33 -4 74 -4 l74 0 25 67 25 68 128 0 129 0 24 -67 25 -68 78 0 78 0 -19
48 c-10 26 -69 174 -131 330 l-111 282 -74 0 -74 0 -19 -52z m168 -339 c0 -5
-35 -9 -79 -9 l-79 0 41 111 40 110 39 -102 c21 -56 38 -106 38 -110z"/>
<path d="M2110 520 l0 -330 75 0 75 0 0 140 0 140 120 0 120 0 0 -140 0 -140
70 0 70 0 0 330 0 330 -70 0 -70 0 0 -130 0 -130 -120 0 -120 0 0 130 0 130
-75 0 -75 0 0 -330z"/>
<path d="M2762 598 c5 -270 10 -301 61 -357 72 -78 279 -92 380 -25 24 16 47
43 60 72 20 43 22 66 25 305 l4 257 -71 0 -71 0 0 -222 c0 -240 -7 -287 -45
-312 -38 -25 -128 -21 -160 7 -38 32 -44 78 -45 315 l0 212 -71 0 -71 0 4
-252z"/>
<path d="M3410 520 l0 -330 65 0 65 0 2 205 3 204 125 -204 125 -205 73 0 72
0 0 330 0 330 -65 0 -65 0 -2 -211 -3 -210 -128 210 -129 211 -69 0 -69 0 0
-330z"/>
<path d="M4247 838 c-34 -86 -247 -639 -247 -643 0 -3 33 -5 74 -5 l73 0 25
68 25 67 128 0 128 0 25 -67 25 -68 79 0 78 0 -13 33 c-8 17 -67 166 -132 330
l-118 297 -72 0 c-49 0 -75 -4 -78 -12z m150 -384 c-2 -3 -38 -4 -79 -2 l-75
3 40 109 40 109 40 -107 c21 -59 37 -110 34 -112z"/>
<path d="M4710 520 l0 -330 65 0 65 0 2 205 3 204 125 -204 125 -205 72 0 73
0 0 330 0 330 -65 0 -65 0 -2 -211 -3 -212 -129 212 -128 211 -69 0 -69 0 0
-330z"/>
</g>
</svg>
